<?xml version="1.0" encoding="UTF-8"?>
<svg version="1.1" xmlns="http://www.w3.org/2000/svg" width="577" height="433">
<path d="M0 0 C6.63131157 6.63131157 5.73109511 16.20462469 5.84375 24.99609375 C5.86215942 26.1062233 5.88056885 27.21635284 5.89953613 28.36012268 C5.95810297 31.90669611 6.01091366 35.45331862 6.0625 39 C4.7785269 63.9718159 4.7785269 63.9718159 10.5625 87.5625 C10.8925 88.5525 11.2225 89.5425 11.5625 90.5625 C12.2225 90.5625 12.8825 90.5625 13.5625 90.5625 C13.789375 91.34625 14.01625 92.13 14.25 92.9375 C15.34375 95.78125 15.34375 95.78125 18.1875 96.875 C18.97125 97.101875 19.755 97.32875 20.5625 97.5625 C20.5625 98.2225 20.5625 98.8825 20.5625 99.5625 C24.00393694 101.31266842 27.49580879 102.94206476 31 104.5625 C32.11246094 105.078125 33.22492188 105.59375 34.37109375 106.125 C37.08037721 107.34533821 39.80283078 108.46399089 42.5625 109.5625 C44.2957231 110.34524591 46.02475902 111.13731438 47.75 111.9375 C52.21060505 113.97869208 56.70710144 115.86205009 61.2734375 117.65234375 C63.34890255 118.47757132 65.39370332 119.34985976 67.4375 120.25 C69.84707012 121.26201945 72.01319629 122.05263926 74.5625 122.5625 C74.5625 121.9025 74.5625 121.2425 74.5625 120.5625 C75.2225 120.5625 75.8825 120.5625 76.5625 120.5625 C76.129375 119.86382812 75.69625 119.16515625 75.25 118.4453125 C74.4146875 117.08019531 74.4146875 117.08019531 73.5625 115.6875 C72.7271875 114.33011719 72.7271875 114.33011719 71.875 112.9453125 C70.5625 110.5625 70.5625 110.5625 70.5625 108.5625 C69.9025 108.5625 69.2425 108.5625 68.5625 108.5625 C68.005625 107.551875 67.44875 106.54125 66.875 105.5 C65.33526788 102.78477346 63.66468405 100.26179375 61.8125 97.75 C59.5625 94.5625 59.5625 94.5625 59.5625 92.5625 C58.9025 92.5625 58.2425 92.5625 57.5625 92.5625 C56.14525512 90.43958528 54.83752706 88.3308892 53.5625 86.125 C51.27066876 81.65922535 51.27066876 81.65922535 47.5625 78.5625 C46.19818783 76.44178346 45.05021744 74.24050745 43.87109375 72.01171875 C42.63183405 69.61974122 42.63183405 69.61974122 41.34765625 67.64453125 C37.74398259 61.62985885 37.48600216 55.40771149 38.5625 48.5625 C41.21212687 41.73713608 45.66040221 36.77229013 51.5625 32.5625 C52.366875 31.985 53.17125 31.4075 54 30.8125 C63.6397084 26.11020322 76.37900856 26.00165001 86.5625 29.0625 C87.90433811 29.53920564 89.24210705 30.02926438 90.5625 30.5625 C90.5625 31.2225 90.5625 31.8825 90.5625 32.5625 C91.119375 32.665625 91.67625 32.76875 92.25 32.875 C95.0394101 33.70428408 97.1764064 34.90549056 99.5625 36.5625 C99.5625 37.2225 99.5625 37.8825 99.5625 38.5625 C100.5525 38.8925 101.5425 39.2225 102.5625 39.5625 C104.34963229 41.56670493 105.99572893 43.56090248 107.625 45.6875 C108.11033203 46.31350098 108.59566406 46.93950195 109.09570312 47.58447266 C113.79511359 53.72456715 118.04079165 60.13301436 122.26806641 66.60205078 C124.54969549 70.0576301 126.90024308 73.46554091 129.25 76.875 C129.93993042 77.8796228 129.93993042 77.8796228 130.64379883 78.90454102 C133.83154713 83.53610116 137.08808627 88.11370755 140.41796875 92.64453125 C141.5625 94.5625 141.5625 94.5625 141.5625 97.5625 C142.2225 97.5625 142.8825 97.5625 143.5625 97.5625 C151.66255979 113.16343708 151.66255979 113.16343708 153.5625 120.5625 C153.86800781 121.67818359 153.86800781 121.67818359 154.1796875 122.81640625 C157.1913046 135.99738795 157.17492334 151.81813351 152.5625 164.5625 C152.21058594 165.5525 151.85867188 166.5425 151.49609375 167.5625 C148.74342388 174.68491973 145.28108281 181.5246157 140.5625 187.5625 C139.9025 187.5625 139.2425 187.5625 138.5625 187.5625 C138.315 188.18125 138.0675 188.8 137.8125 189.4375 C136.33479238 191.94960296 135.12294823 192.32357344 132.5625 193.5625 C132.2325 194.5525 131.9025 195.5425 131.5625 196.5625 C114.50729486 212.24373064 94.28676147 215.03003206 72.10449219 214.91894531 C70.04845564 214.91971177 67.99241924 214.92178716 65.93638515 214.92505455 C60.33761308 214.93012158 54.73902417 214.9164981 49.14028144 214.89948702 C43.14726171 214.88444548 37.15424433 214.88651284 31.16120911 214.88632202 C19.55889077 214.88310747 7.95665737 214.86345623 -3.64563042 214.83760417 C-13.00017027 214.81694543 -22.35470192 214.80266802 -31.70925903 214.79266357 C-33.04844807 214.79120719 -34.3876371 214.78974843 -35.72682613 214.78828728 C-36.39043271 214.78756381 -37.05403929 214.78684035 -37.73775515 214.78609496 C-38.73375734 214.78500811 -38.73375734 214.78500811 -39.74988079 214.78389931 C-40.41417817 214.78317708 -41.07847555 214.78245486 -41.76290315 214.78171075 C-74.42039295 214.74580712 -107.07771451 214.66765715 -139.73508549 214.57316017 C-143.35547147 214.56273618 -146.975858 214.55253544 -150.59624481 214.54240417 C-178.30699772 214.46454486 -206.01756798 214.3664209 -233.72808492 214.22733259 C-240.04930312 214.19578339 -246.37053088 214.16811503 -252.69177246 214.14172363 C-260.30114871 214.10959769 -267.91044177 214.06982332 -275.51972419 214.0201112 C-279.32933517 213.99525824 -283.13890044 213.97304434 -286.94856834 213.95908737 C-291.03020206 213.94391803 -295.11157951 213.91344249 -299.19311523 213.88134766 C-300.35642994 213.87918873 -301.51974464 213.8770298 -302.71831131 213.87480545 C-323.85532124 213.65992984 -323.85532124 213.65992984 -330.4375 207.5625 C-333.86112131 202.96506567 -334.05091028 199.17871967 -333.93359375 193.58203125 C-332.99395966 187.86284109 -329.39004336 184.51504336 -325.4375 180.5625 C-325.4375 179.2425 -325.4375 177.9225 -325.4375 176.5625 C-327.87225289 174.38117531 -327.87225289 174.38117531 -330.9375 172.4375 C-332.80132892 171.19024075 -334.64337378 169.90809466 -336.4375 168.5625 C-336.4375 167.9025 -336.4375 167.2425 -336.4375 166.5625 C-337.5203125 166.19125 -337.5203125 166.19125 -338.625 165.8125 C-342.84591313 163.93653861 -345.7312948 162.04216804 -347.75 157.8125 C-347.976875 157.07 -348.20375 156.3275 -348.4375 155.5625 C-349.0975 155.5625 -349.7575 155.5625 -350.4375 155.5625 C-354.14300199 147.0707246 -354.4182042 140.65472287 -351.3828125 131.91088867 C-349.88107822 128.1802115 -347.86799532 124.84583825 -345.75 121.4375 C-342.45097925 115.99444645 -339.30177397 110.52688109 -336.375 104.875 C-333.6448148 99.65419306 -330.71823003 94.6008794 -327.5625 89.625 C-327.18085693 89.01503174 -326.79921387 88.40506348 -326.40600586 87.77661133 C-325.47299401 86.3337684 -324.46196395 84.94191308 -323.4375 83.5625 C-322.7775 83.5625 -322.1175 83.5625 -321.4375 83.5625 C-321.4375 82.9025 -321.4375 82.2425 -321.4375 81.5625 C-315.78841884 77.63270441 -311.30055274 76.49221686 -304.4375 77.5625 C-300.18946879 78.92736174 -297.77754965 81.080763 -295.1875 84.75 C-291.51750896 92.09191926 -289.7004826 100.17234552 -287.875 108.125 C-287.4574373 109.91806336 -287.03947443 111.71103358 -286.62109375 113.50390625 C-286.42370605 114.35355957 -286.22631836 115.20321289 -286.02294922 116.07861328 C-285.1970575 119.58262595 -284.3211625 123.07264396 -283.4375 126.5625 C-282.7775 126.5625 -282.1175 126.5625 -281.4375 126.5625 C-281.4375 127.5525 -281.4375 128.5425 -281.4375 129.5625 C-274.93700788 132.32028454 -268.85087441 133.85651295 -261.78637695 133.95678711 C-260.64066129 133.98356757 -260.64066129 133.98356757 -259.47179985 134.01088905 C-256.8523939 134.06830232 -254.23298372 134.1107527 -251.61328125 134.15234375 C-249.66742172 134.18938287 -247.72156511 134.22657502 -245.77571106 134.26390076 C-214.1305662 134.83057276 -182.47505868 134.90806329 -150.82592118 135.07991064 C-141.59900748 135.13014917 -132.37212081 135.18473886 -123.14523351 135.23958123 C-104.24268083 135.35184159 -85.34010252 135.45898844 -66.4375 135.5625 C-66.4375 134.9025 -66.4375 134.2425 -66.4375 133.5625 C-67.695625 133.170625 -68.95375 132.77875 -70.25 132.375 C-73.78556938 131.20013688 -77.12865377 129.83351111 -80.5 128.25 C-85.44751532 125.94661133 -90.48586977 124.01478256 -95.6105957 122.15405273 C-99.92326004 120.56538708 -104.15821607 118.84733597 -108.37890625 117.02734375 C-109.42087158 116.58028076 -110.46283691 116.13321777 -111.53637695 115.67260742 C-113.5827145 114.78935442 -115.62454772 113.89556416 -117.66088867 112.98950195 C-129.33742222 107.96572934 -139.91019448 107.03606361 -152.4375 108.5625 C-153.60829102 108.70413574 -153.60829102 108.70413574 -154.80273438 108.84863281 C-165.01209784 110.12381626 -175.06901766 111.81517419 -185.12060547 114.00219727 C-223.79251163 122.37963843 -223.79251163 122.37963843 -236.4375 117.5625 C-236.4375 116.9025 -236.4375 116.2425 -236.4375 115.5625 C-237.01113281 115.48644531 -237.58476562 115.41039062 -238.17578125 115.33203125 C-241.21497117 114.29797181 -242.52584315 112.65635054 -244.625 110.25 C-245.31980469 109.47011719 -246.01460938 108.69023437 -246.73046875 107.88671875 C-248.35880798 105.66964359 -249.02601472 104.24636669 -249.4375 101.5625 C-250.0975 101.5625 -250.7575 101.5625 -251.4375 101.5625 C-253.1640625 99.26171875 -253.1640625 99.26171875 -255.0625 96.25 C-255.69414062 95.26386719 -256.32578125 94.27773437 -256.9765625 93.26171875 C-258.4375 90.5625 -258.4375 90.5625 -258.4375 87.5625 C-259.0975 87.5625 -259.7575 87.5625 -260.4375 87.5625 C-266.37831455 78.97337053 -271.47562962 70.59212913 -270.03125 59.97265625 C-269.13131312 56.31962299 -267.53356786 53.67279424 -265.4375 50.5625 C-264.7775 50.5625 -264.1175 50.5625 -263.4375 50.5625 C-263.4375 49.9025 -263.4375 49.2425 -263.4375 48.5625 C-258.1544257 45.48756514 -253.75772926 43.89794824 -247.5625 44.0625 C-246.80130859 44.07313477 -246.04011719 44.08376953 -245.25585938 44.09472656 C-235.01416998 44.41503276 -224.92930687 46.28601813 -214.84716797 47.99365234 C-209.24038549 48.92905283 -203.61984531 49.7723281 -198 50.625 C-190.39244614 51.79164276 -182.78831012 52.97775215 -175.1875 54.1875 C-168.98845887 55.17321325 -162.78556358 56.10138681 -156.56640625 56.953125 C-153.10521726 57.44514356 -149.66161292 58.02526368 -146.21484375 58.609375 C-145.08183838 58.79636963 -143.94883301 58.98336426 -142.78149414 59.17602539 C-140.52742019 59.54898111 -138.27513478 59.93297381 -136.02514648 60.32983398 C-124.57091905 62.19936258 -114.3670735 62.13970373 -104.4375 55.5625 C-102.62091209 53.98527426 -101.06433032 52.34184566 -99.4375 50.5625 C-98.7775 50.5625 -98.1175 50.5625 -97.4375 50.5625 C-97.1075 49.5725 -96.7775 48.5825 -96.4375 47.5625 C-95.7775 47.5625 -95.1175 47.5625 -94.4375 47.5625 C-94.19 47.005625 -93.9425 46.44875 -93.6875 45.875 C-91.08577025 41.06179997 -87.70197031 37.90492267 -83.4375 34.5625 C-83.1075 33.9025 -82.7775 33.2425 -82.4375 32.5625 C-81.7775 32.5625 -81.1175 32.5625 -80.4375 32.5625 C-80.1796875 31.99015625 -79.921875 31.4178125 -79.65625 30.828125 C-78.32384058 28.35121005 -76.78693882 26.4283834 -74.9375 24.3125 C-74.3290625 23.60609375 -73.720625 22.8996875 -73.09375 22.171875 C-71.4375 20.5625 -71.4375 20.5625 -69.4375 20.5625 C-69.4375 19.9025 -69.4375 19.2425 -69.4375 18.5625 C-68.7775 18.5625 -68.1175 18.5625 -67.4375 18.5625 C-67.21964844 18.02367187 -67.00179688 17.48484375 -66.77734375 16.9296875 C-61.03545448 6.78512512 -50.09281702 -1.02732178 -39.19921875 -4.45703125 C-25.5168958 -7.85049526 -11.69070857 -8.81685897 0 0 Z M-46.4375 20.5625 C-47.31148438 21.42488281 -48.18546875 22.28726563 -49.0859375 23.17578125 C-53.9010572 27.94261178 -58.61596154 32.73308462 -63 37.90625 C-64.4375 39.5625 -64.4375 39.5625 -66.125 41.15625 C-67.66493942 42.48558689 -67.66493942 42.48558689 -67.4375 44.5625 C-68.9225 45.0575 -68.9225 45.0575 -70.4375 45.5625 C-70.4375 46.2225 -70.4375 46.8825 -70.4375 47.5625 C-71.0975 47.5625 -71.7575 47.5625 -72.4375 47.5625 C-72.4375 48.2225 -72.4375 48.8825 -72.4375 49.5625 C-73.0975 49.5625 -73.7575 49.5625 -74.4375 49.5625 C-74.4375 50.2225 -74.4375 50.8825 -74.4375 51.5625 C-75.0975 51.5625 -75.7575 51.5625 -76.4375 51.5625 C-77.93799936 53.04611694 -77.93799936 53.04611694 -79.5 55 C-90.17833439 67.46541101 -101.17787647 77.11686936 -118.125 78.4375 C-127.52707965 78.97228954 -136.56436313 77.57337164 -145.81201172 76.00634766 C-149.19027902 75.43524017 -152.5745981 74.90685675 -155.9597168 74.37817383 C-158.34635666 74.00448484 -160.73179705 73.62376025 -163.1171875 73.2421875 C-166.74008598 72.66699918 -170.36709457 72.13378528 -174 71.625 C-188.40390529 69.59865928 -202.78531594 67.37678172 -217.125 64.9375 C-223.78275471 63.80742086 -230.44289095 62.82086737 -237.14453125 61.98046875 C-239.18758922 61.72114822 -241.22783688 61.43678943 -243.26171875 61.11328125 C-247.43083457 60.32831755 -247.43083457 60.32831755 -251.234375 61.73828125 C-252.6761441 63.53083425 -252.6761441 63.53083425 -252.30859375 65.9453125 C-251.35920865 68.79772512 -250.15940664 70.93081986 -248.5 73.4375 C-247.87351562 74.38882813 -247.24703125 75.34015625 -246.6015625 76.3203125 C-245.88742188 77.39023438 -245.17328125 78.46015625 -244.4375 79.5625 C-243.61090736 80.83003086 -242.78543327 82.09829169 -241.9609375 83.3671875 C-235.58108891 94.38528594 -235.58108891 94.38528594 -226.4375 102.5625 C-219.39440921 103.07534642 -212.83816677 101.64006575 -205.95605469 100.22644043 C-202.50544359 99.51883144 -199.04946656 98.83841038 -195.59375 98.15625 C-194.90104004 98.01902527 -194.20833008 97.88180054 -193.49462891 97.74041748 C-183.51611389 95.77439145 -173.48595705 94.12676652 -163.4375 92.5625 C-162.69064941 92.44390625 -161.94379883 92.3253125 -161.17431641 92.203125 C-146.22377418 89.85848921 -131.7180009 89.26322245 -117.375 94.5 C-116.5286499 94.80212402 -115.6822998 95.10424805 -114.81030273 95.41552734 C-105.70803487 98.72439274 -96.79993354 102.50030828 -87.8828125 106.2734375 C-82.77930617 108.43080507 -77.64376015 110.45487217 -72.4609375 112.4140625 C-68.79437476 113.80678788 -65.1451892 115.23990385 -61.5 116.6875 C-60.29472656 117.16445312 -59.08945312 117.64140625 -57.84765625 118.1328125 C-45.4280892 123.3396413 -45.4280892 123.3396413 -42.125 128.6875 C-40.73764154 134.48918082 -40.44707576 139.61702382 -43.1875 145 C-47.5177243 149.93164434 -51.93288045 152.18490924 -58.50782454 152.73604083 C-60.84992546 152.79235272 -63.18349304 152.78489246 -65.52607727 152.7539978 C-66.86591219 152.74854382 -66.86591219 152.74854382 -68.23281449 152.74297965 C-71.21435809 152.72826411 -74.19557015 152.69887719 -77.17700195 152.66943359 C-79.31941217 152.65568724 -81.46182798 152.64278967 -83.60424805 152.63067627 C-89.41640848 152.5948786 -95.22838305 152.54575144 -101.04041314 152.49315596 C-105.8961255 152.4501222 -110.75187586 152.41283037 -115.60763329 152.37529242 C-127.06623902 152.28631017 -138.52470509 152.18573825 -149.9831543 152.07861328 C-161.79420667 151.9684498 -173.60528232 151.88043585 -185.41659003 151.80291116 C-195.56556041 151.73536162 -205.71433455 151.6526948 -215.86309022 151.55826056 C-221.92078874 151.50212813 -227.97838876 151.45199007 -234.03624916 151.4169426 C-239.73527703 151.38342173 -245.43382773 151.33102975 -251.13256073 151.26432037 C-253.21979462 151.24304452 -255.3071086 151.22839515 -257.39443779 151.22098923 C-271.3828097 151.16618735 -282.67963233 150.54523747 -293.4375 140.5625 C-302.76088175 129.97730719 -304.72193783 114.11261672 -307.85253906 100.78637695 C-308.3609068 98.54487455 -308.3609068 98.54487455 -309.4375 96.5625 C-312.59289038 97.28641532 -312.59289038 97.28641532 -314.125 99.9375 C-315.6611068 102.52057373 -315.6611068 102.52057373 -315.4375 105.5625 C-316.0975 105.5625 -316.7575 105.5625 -317.4375 105.5625 C-317.9221875 106.55507812 -318.406875 107.54765625 -318.90625 108.5703125 C-322.93993855 116.76761214 -327.16757364 124.78135125 -331.7734375 132.671875 C-335.56257857 139.16056732 -335.56257857 139.16056732 -335.4375 146.5625 C-332.73645665 149.35593316 -329.77627415 151.57972618 -326.4375 153.5625 C-325.7775 153.5625 -325.1175 153.5625 -324.4375 153.5625 C-324.1075 154.5525 -323.7775 155.5425 -323.4375 156.5625 C-319.80789924 159.53452012 -319.80789924 159.53452012 -315.4375 160.5625 C-315.4375 161.2225 -315.4375 161.8825 -315.4375 162.5625 C-312.80065253 164.96070305 -312.80065253 164.96070305 -309.4375 165.5625 C-306.63087808 170.98863572 -305.71797694 175.49090817 -306.4375 181.5625 C-308.24145339 186.72199364 -311.41923129 191.04698894 -314.4375 195.5625 C-271.75889219 196.77838514 -229.07982413 196.76122055 -186.3877919 196.79814246 C-182.4543194 196.80168407 -178.52084763 196.80582411 -174.58737573 196.80998212 C-157.17633248 196.8283614 -139.76528905 196.84411728 -122.35423756 196.85188007 C-118.1434663 196.85378872 -113.93269506 196.85570931 -109.72192383 196.85766602 C-108.67585662 196.85814976 -107.62978941 196.8586335 -106.55202319 196.8591319 C-89.49866076 196.86748409 -72.44536722 196.892947 -55.39203504 196.92524669 C-37.78146808 196.95832588 -20.17093639 196.97632733 -2.5603382 196.97952431 C7.28802205 196.98168246 17.13627997 196.99033556 26.9846096 197.01598549 C35.33802071 197.03769941 43.69130426 197.04573725 52.0447404 197.03601871 C56.29781905 197.03148379 60.55063432 197.03331553 64.80367661 197.05278015 C68.70266609 197.07047157 72.60120106 197.06936666 76.50019578 197.05388286 C77.90275714 197.05151662 79.30535052 197.05577877 80.70786311 197.06771151 C99.58382026 197.21825643 110.99816512 190.75154394 124.7265625 178.48046875 C126.79299661 176.76421231 126.79299661 176.76421231 126.5625 174.5625 C127.2225 174.5625 127.8825 174.5625 128.5625 174.5625 C129.69261652 172.3566576 130.81665788 170.14804973 131.9375 167.9375 C132.25460937 167.32003906 132.57171875 166.70257813 132.8984375 166.06640625 C139.52223597 152.9568051 140.02316034 135.57925547 136.125 121.375 C131.70740663 109.90475757 124.18060096 99.79282673 116.9921875 89.9296875 C112.72202892 84.05609626 108.52612141 78.05284905 104.96484375 71.72265625 C104.50207031 71.00980469 104.03929687 70.29695313 103.5625 69.5625 C102.9025 69.5625 102.2425 69.5625 101.5625 69.5625 C101.3046875 68.84707031 101.046875 68.13164062 100.78125 67.39453125 C99.48865235 64.39089889 97.9347291 61.92744628 96.0625 59.25 C95.4540625 58.36699219 94.845625 57.48398438 94.21875 56.57421875 C93.6721875 55.91035156 93.125625 55.24648437 92.5625 54.5625 C91.9025 54.5625 91.2425 54.5625 90.5625 54.5625 C89.9025 53.2425 89.2425 51.9225 88.5625 50.5625 C87.9025 50.5625 87.2425 50.5625 86.5625 50.5625 C86.5625 49.9025 86.5625 49.2425 86.5625 48.5625 C81.86055309 45.7927594 77.92987879 45.06951018 72.5625 45.125 C71.87671875 45.10501953 71.1909375 45.08503906 70.484375 45.06445312 C65.3660898 45.06933698 62.50401241 46.3776172 58.5625 49.5625 C56.44515812 51.81202182 56.44515812 51.81202182 55.5625 54.5625 C56.49346172 60.28126486 60.17839302 65.9093529 63.5625 70.5625 C64.2225 70.5625 64.8825 70.5625 65.5625 70.5625 C65.789375 71.2225 66.01625 71.8825 66.25 72.5625 C67.9503815 76.44908628 69.95873084 80.19929817 72.5625 83.5625 C73.2225 83.5625 73.8825 83.5625 74.5625 83.5625 C74.79195313 84.24570313 75.02140625 84.92890625 75.2578125 85.6328125 C76.86993788 89.25285452 79.08538763 92.27620611 81.4375 95.4375 C87.88348561 104.14053695 93.82367195 112.27016039 92.5625 123.5625 C90.27545417 130.4236375 87.07743714 135.27277926 80.5625 138.5625 C66.94026013 140.85958359 54.70915547 134.93986697 42.95703125 128.76171875 C40.35229052 127.4572238 37.70779868 126.38609271 35 125.3125 C5.9375 113.3125 5.9375 113.3125 0.5625 102.5625 C-0.0975 102.5625 -0.7575 102.5625 -1.4375 102.5625 C-1.72625 101.98113281 -2.015 101.39976562 -2.3125 100.80078125 C-3.00814941 99.41672878 -3.71441019 98.03788498 -4.4375 96.66796875 C-4.7675 96.03503906 -5.0975 95.40210938 -5.4375 94.75 C-5.7675 94.12480469 -6.0975 93.49960938 -6.4375 92.85546875 C-8.97779787 87.03064511 -9.7989542 81.45014423 -10.0625 75.1875 C-10.10117187 74.39496826 -10.13984375 73.60243652 -10.1796875 72.78588867 C-10.43075106 67.1532105 -10.46462153 61.5359547 -10.42285156 55.89770508 C-10.39363615 48.75859367 -10.55467555 41.62462932 -10.75488281 34.48886108 C-10.79301022 33.09004162 -10.82789062 31.69112953 -10.859375 30.29214478 C-10.90496635 28.30521072 -10.9640076 26.31859955 -11.0234375 24.33203125 C-11.07056885 22.59336792 -11.07056885 22.59336792 -11.11865234 20.81958008 C-11.44628874 17.47272165 -12.25173713 14.69927371 -13.4375 11.5625 C-26.22926129 11.02263669 -37.06193981 10.63883014 -46.4375 20.5625 Z " fill="#0F1012" transform="translate(387.4375,112.4375)"/>
<path d="M0 0 C6.92395428 -0.50153391 11.35976249 -0.23017813 17 4 C18.4375 6.25 18.4375 6.25 19 8 C15.65747276 8.07427838 13.1964086 8.06546953 10 7 C10 6 10 5 10 4 C9.67 3.01 9.34 2.02 9 1 C6.03 1 3.06 1 0 1 C0 0.67 0 0.34 0 0 Z " fill="#3C3D3E" transform="translate(73,190)"/>
<path d="M0 0 C0.99 0.33 1.98 0.66 3 1 C3.99 0.67 4.98 0.34 6 0 C6.33 0.99 6.66 1.98 7 3 C7.66 3.33 8.32 3.66 9 4 C5.7 4.66 2.4 5.32 -1 6 C-1 3 -1 3 0 0 Z " fill="#0E0F11" transform="translate(348,121)"/>
<path d="M0 0 C1.921875 0.33984375 1.921875 0.33984375 4 1 C5.25 3.5625 5.25 3.5625 6 6 C6.99 6 7.98 6 9 6 C9.33 6.99 9.66 7.98 10 9 C9.67 9.66 9.34 10.32 9 11 C5.28720216 9.55613418 4.0513557 7.87763608 2.25 4.375 C1.82203125 3.55773437 1.3940625 2.74046875 0.953125 1.8984375 C0.63859375 1.27195313 0.3240625 0.64546875 0 0 Z " fill="#16171A" transform="translate(509,209)"/>
<path d="M0 0 C3.875 1.75 3.875 1.75 5 4 C7.52733235 4.65555119 7.52733235 4.65555119 10 5 C10 5.33 10 5.66 10 6 C3.79895188 6.27560214 -1.93184478 5.22899346 -8 4 C-4.91190305 2.23537317 -3.76687864 2 0 2 C0 1.34 0 0.68 0 0 Z " fill="#313234" transform="translate(188,176)"/>
<path d="M0 0 C1.64826111 2.96687001 2.44271087 5.65626525 3 9 C1.68 9 0.36 9 -1 9 C-1.66 7.02 -2.32 5.04 -3 3 C-2.01 2.01 -1.02 1.02 0 0 Z " fill="#191919" transform="translate(93,201)"/>
<path d="M0 0 C2.03144641 0.93446535 4.03533587 1.93224776 6 3 C5.67 5.31 5.34 7.62 5 10 C2.74754119 7.31158141 1.11786042 5.35358125 0 2 C-0.66 1.67 -1.32 1.34 -2 1 C-1.34 0.67 -0.68 0.34 0 0 Z " fill="#2A2B2C" transform="translate(458,219)"/>
<path d="M0 0 C0.928125 0.2784375 0.928125 0.2784375 1.875 0.5625 C4.04160178 1.23686176 4.04160178 1.23686176 6 0 C6.33 1.32 6.66 2.64 7 4 C2.05 5.485 2.05 5.485 -3 7 C-2.34 5.68 -1.68 4.36 -1 3 C-0.67 2.01 -0.34 1.02 0 0 Z " fill="#030406" transform="translate(63,290)"/>
<path d="M0 0 C2.9375 0.375 2.9375 0.375 6 1 C6.99 1 7.98 1 9 1 C8.34 2.65 7.68 4.3 7 6 C2.545 4.02 2.545 4.02 -2 2 C-1.34 1.34 -0.68 0.68 0 0 Z " fill="#252527" transform="translate(404,227)"/>
<path d="M0 0 C0.97608217 2.92824652 1.08226668 4.95613276 1 8 C0.01 8.33 -0.98 8.66 -2 9 C-2 8.34 -2 7.68 -2 7 C-3.32 7.33 -4.64 7.66 -6 8 C-6 7.34 -6 6.68 -6 6 C-5.34 6 -4.68 6 -4 6 C-3.71125 5.38125 -3.4225 4.7625 -3.125 4.125 C-2 2 -2 2 0 0 Z " fill="#383A39" transform="translate(324,125)"/>
<path d="M0 0 C0.99 0.99 1.98 1.98 3 3 C-0.4019487 5.09350689 -3.05272412 5.17942163 -7 5 C-7 4.34 -7 3.68 -7 3 C-4.69 2.01 -2.38 1.02 0 0 Z " fill="#030406" transform="translate(267,187)"/>
<path d="M0 0 C1.32 0.66 2.64 1.32 4 2 C3.01 3.485 3.01 3.485 2 5 C-0.625 5.1875 -0.625 5.1875 -3 5 C-3 4.01 -3 3.02 -3 2 C-2.01 1.34 -1.02 0.68 0 0 Z " fill="#060609" transform="translate(156,321)"/>
<path d="M0 0 C1.37562854 1.28965176 2.70766393 2.62689293 4 4 C4 4.66 4 5.32 4 6 C0.31245243 5.50168276 -1.60490662 4.89932357 -4 2 C-2.68 2 -1.36 2 0 2 C0 1.34 0 0.68 0 0 Z " fill="#181A19" transform="translate(59,281)"/>
<path d="M0 0 C2.31 0.33 4.62 0.66 7 1 C6.34 2.32 5.68 3.64 5 5 C2.525 4.01 2.525 4.01 0 3 C0 2.01 0 1.02 0 0 Z " fill="#1A1B1E" transform="translate(451,233)"/>
<path d="M0 0 C0.66 0.66 1.32 1.32 2 2 C2.66 2 3.32 2 4 2 C4.99 2 5.98 2 7 2 C7.33 2.66 7.66 3.32 8 4 C4.78548731 5.60725635 1.56387464 5.05748185 -2 5 C-2 4.01 -2 3.02 -2 2 C-1.34 2 -0.68 2 0 2 C0 1.34 0 0.68 0 0 Z " fill="#252727" transform="translate(271,186)"/>
<path d="M0 0 C0.66 0.66 1.32 1.32 2 2 C-1.465 4.97 -1.465 4.97 -5 8 C-4 4 -4 4 -3 1 C-2.01 0.67 -1.02 0.34 0 0 Z " fill="#2A2B2B" transform="translate(300,173)"/>
<path d="M0 0 C0.99 0 1.98 0 3 0 C3 0.66 3 1.32 3 2 C3.66 2 4.32 2 5 2 C5 2.66 5 3.32 5 4 C3.35 4.66 1.7 5.32 0 6 C-0.66 5.34 -1.32 4.68 -2 4 C-1.34 2.68 -0.68 1.36 0 0 Z " fill="#040705" transform="translate(66,272)"/>
<path d="M0 0 C1.9375 0.8125 1.9375 0.8125 4 2 C4.33 2.99 4.66 3.98 5 5 C3.125 5.625 3.125 5.625 1 6 C0.34 5.34 -0.32 4.68 -1 4 C-0.625 1.875 -0.625 1.875 0 0 Z " fill="#353537" transform="translate(59,264)"/>
<path d="M0 0 C0.66 0 1.32 0 2 0 C2 0.66 2 1.32 2 2 C3.65 2 5.3 2 7 2 C6.67 4.31 6.34 6.62 6 9 C5.34 7.68 4.68 6.36 4 5 C3.34 5 2.68 5 2 5 C1.34 3.35 0.68 1.7 0 0 Z " fill="#3D3E3F" transform="translate(134,209)"/>
<path d="M0 0 C0 0.99 0 1.98 0 3 C-2.64738916 4.4606285 -3.89448334 5 -7 5 C-6.625 3.0625 -6.625 3.0625 -6 1 C-4 0 -4 0 0 0 Z " fill="#040507" transform="translate(96,210)"/>
<path d="M0 0 C3.35595828 0.59927826 5.37801226 1.84622436 8 4 C5.6875 4.625 5.6875 4.625 3 5 C2.01 4.34 1.02 3.68 0 3 C0 2.01 0 1.02 0 0 Z " fill="#2A2B2D" transform="translate(105,242)"/>
<path d="M0 0 C1.32 1.65 2.64 3.3 4 5 C2.02 5.99 2.02 5.99 0 7 C-0.66 5.68 -1.32 4.36 -2 3 C-1.34 2.01 -0.68 1.02 0 0 Z " fill="#202021" transform="translate(515,188)"/>
<path d="M0 0 C2.45823172 3.68734758 3.01242616 6.69699971 4 11 C1.66666177 8.87878343 0.0851114 6.98405635 -1 4 C-0.625 1.75 -0.625 1.75 0 0 Z " fill="#3A3B3D" transform="translate(100,228)"/>
<path d="M0 0 C1.32 0.33 2.64 0.66 4 1 C4 2.32 4 3.64 4 5 C3.34 5.66 2.68 6.32 2 7 C0.5393715 4.35261084 0 3.10551666 0 0 Z " fill="#212223" transform="translate(519,224)"/>
<path d="M0 0 C2.475 0.99 2.475 0.99 5 2 C4.67 3.65 4.34 5.3 4 7 C2.35 5.35 0.7 3.7 -1 2 C-0.67 1.34 -0.34 0.68 0 0 Z " fill="#28282A" transform="translate(141,217)"/>
<path d="M0 0 C0.33 0.66 0.66 1.32 1 2 C1.66 2.33 2.32 2.66 3 3 C2.67 3.66 2.34 4.32 2 5 C-0.31 4.67 -2.62 4.34 -5 4 C-3.74458443 1.48916886 -2.49936512 1.12874554 0 0 Z " fill="#1D1E20" transform="translate(147,170)"/>
<path d="M0 0 C2.475 0.495 2.475 0.495 5 1 C5 1.99 5 2.98 5 4 C4.01 4.33 3.02 4.66 2 5 C1.34 4.34 0.68 3.68 0 3 C0 2.01 0 1.02 0 0 Z " fill="#050608" transform="translate(288,322)"/>
<path d="M0 0 C1.65 0.99 3.3 1.98 5 3 C4.01 4.485 4.01 4.485 3 6 C2.01 5.67 1.02 5.34 0 5 C0 3.35 0 1.7 0 0 Z " fill="#050608" transform="translate(58,297)"/>
<path d="M0 0 C1.32 0.33 2.64 0.66 4 1 C3.34 1 2.68 1 2 1 C2.33 2.65 2.66 4.3 3 6 C2.01 6.66 1.02 7.32 0 8 C0 5.36 0 2.72 0 0 Z " fill="#3D3D3F" transform="translate(426,161)"/>
<path d="M0 0 C0.33 0 0.66 0 1 0 C1 1.65 1 3.3 1 5 C-0.65 5.66 -2.3 6.32 -4 7 C-4 6.34 -4 5.68 -4 5 C-3.34 5 -2.68 5 -2 5 C-1.7834375 4.0409375 -1.7834375 4.0409375 -1.5625 3.0625 C-1 1 -1 1 0 0 Z " fill="#363636" transform="translate(518,282)"/>
<path d="M0 0 C0.66 1.98 1.32 3.96 2 6 C1.01 6.495 1.01 6.495 0 7 C-0.28875 6.195625 -0.5775 5.39125 -0.875 4.5625 C-1.73262568 1.8673532 -1.73262568 1.8673532 -4 1 C-2 0 -2 0 0 0 Z " fill="#2E2F30" transform="translate(41,266)"/>
<path d="M0 0 C1.875 0.25 1.875 0.25 4 1 C5.25 3.0625 5.25 3.0625 6 5 C5.34 5.66 4.68 6.32 4 7 C2.02 3.535 2.02 3.535 0 0 Z " fill="#2C2D2E" transform="translate(509,209)"/>
<path d="M0 0 C1.65 0 3.3 0 5 0 C5 0.66 5 1.32 5 2 C3.02 2.66 1.04 3.32 -1 4 C-0.67 2.68 -0.34 1.36 0 0 Z " fill="#040507" transform="translate(200,209)"/>
<path d="M0 0 C0.66 0.33 1.32 0.66 2 1 C2 1.66 2 2.32 2 3 C2.66 3.33 3.32 3.66 4 4 C1.69 4.33 -0.62 4.66 -3 5 C-2.625 3.0625 -2.625 3.0625 -2 1 C-1.34 0.67 -0.68 0.34 0 0 Z " fill="#3C3C3D" transform="translate(353,121)"/>
</svg>
