<?xml version="1.0" encoding="UTF-8"?>
<svg version="1.1" xmlns="http://www.w3.org/2000/svg" width="577" height="433">
<path d="M0 0 C4.61877113 3.68785602 6.32091851 7.88562023 7.8125 13.5 C8.12574219 14.64082031 8.12574219 14.64082031 8.4453125 15.8046875 C9.50131147 21.50708192 8.3144155 26.35976687 6.6875 31.8125 C6.38791382 32.83561279 6.38791382 32.83561279 6.08227539 33.87939453 C3.85986325 40.63559397 -0.05917399 44.17319445 -6.1875 47.5 C-5.57229492 47.51981934 -4.95708984 47.53963867 -4.32324219 47.56005859 C-1.52757458 47.65549727 1.2673651 47.76509955 4.0625 47.875 C5.03058594 47.9059375 5.99867188 47.936875 6.99609375 47.96875 C8.39794922 48.02675781 8.39794922 48.02675781 9.828125 48.0859375 C10.68696289 48.1173584 11.54580078 48.1487793 12.43066406 48.18115234 C14.95849481 48.51954379 16.59063052 49.2877499 18.8125 50.5 C20.5519731 50.84900256 22.30474922 51.134414 24.0625 51.375 C30.45047714 52.3601715 36.60624424 53.87912718 42.85546875 55.5 C46.32471731 56.39329253 49.81173973 57.17496893 53.31079102 57.94189453 C58.28278508 59.05109512 63.23376147 60.24991896 68.1875 61.4375 C69.24710938 61.68951172 70.30671875 61.94152344 71.3984375 62.20117188 C83.18768023 65.02567795 94.69193932 68.23104981 106.0625 72.4375 C110.05087243 73.90193716 114.05705098 75.21167818 118.125 76.4375 C122.72445762 77.82386134 127.23853844 79.34983453 131.75 81 C137.51202485 83.09064618 143.31040738 84.82340498 149.21484375 86.4609375 C155.48160683 88.2708821 161.63813358 90.39900031 167.8125 92.5 C168.823125 92.79648438 169.83375 93.09296875 170.875 93.3984375 C179.82167836 96.75344188 182.14996784 102.31337771 185.93554688 110.50195312 C188.62828586 116.02141971 191.20365781 119.74251315 196.8125 122.5 C211.7362238 126.7916489 229.86684753 118.59533238 243.87109375 113.7734375 C255.92828929 109.66349194 266.70283759 106.80133534 278.8125 112.5 C278.8125 113.16 278.8125 113.82 278.8125 114.5 C279.43125 114.809375 280.05 115.11875 280.6875 115.4375 C285.39404167 117.79077083 287.01702088 120.19798084 288.76953125 125.26953125 C289.05183594 126.27371094 289.33414062 127.27789062 289.625 128.3125 C292.55006255 138.181795 296.22707972 147.74544664 300.20703125 157.234375 C302.76525522 163.34587394 305.18901387 169.50218175 307.5625 175.6875 C307.98934082 176.79955811 308.41618164 177.91161621 308.85595703 179.05737305 C325.8125 223.45649524 325.8125 223.45649524 325.8125 229.5 C334.35334728 229.24118645 342.40043818 228.30318422 350.75 226.5 C374.91020512 221.35904032 374.91020512 221.35904032 384.8125 225.5 C387.38544608 227.27974498 389.75517833 229.13408008 391.8125 231.5 C391.8125 232.16 391.8125 232.82 391.8125 233.5 C392.4725 233.5 393.1325 233.5 393.8125 233.5 C397.56995751 242.96074122 397.57137571 250.75662883 394.8125 260.5 C394.62945313 261.15742188 394.44640625 261.81484375 394.2578125 262.4921875 C391.45472346 271.10909084 385.53862639 279.6386171 377.8125 284.5 C363.39765388 291.64914201 351.48338976 291.13213953 336 288.125 C334.79923828 287.90328125 333.59847656 287.6815625 332.36132812 287.453125 C327.26252562 286.48733511 322.61716108 285.4738706 317.8125 283.5 C316.4369697 283.14931465 315.05208775 282.83323823 313.66015625 282.5546875 C308.46180819 281.45067071 303.36310894 280.0689627 298.25 278.625 C297.35603516 278.38136719 296.46207031 278.13773437 295.54101562 277.88671875 C284.2680153 274.70355992 277.50923228 269.80532281 269.38232422 261.48144531 C267.79898957 259.8611744 266.19979946 258.2579049 264.59765625 256.65625 C256.8125 248.79562163 256.8125 248.79562163 256.8125 246.5 C256.214375 246.231875 255.61625 245.96375 255 245.6875 C252.81402146 244.50082594 251.39917406 243.40400887 249.8125 241.5 C249.8125 240.84 249.8125 240.18 249.8125 239.5 C249.1525 239.5 248.4925 239.5 247.8125 239.5 C246.47354368 237.83784732 245.14119858 236.17036393 243.8125 234.5 C242.14979713 233.16172696 240.48333819 231.82810215 238.8125 230.5 C235.8125 226.98275862 235.8125 226.98275862 235.8125 224.5 C234.8225 224.17 233.8325 223.84 232.8125 223.5 C232.8125 222.84 232.8125 222.18 232.8125 221.5 C231.8225 221.17 230.8325 220.84 229.8125 220.5 C224.8125 215.03488372 224.8125 215.03488372 224.8125 212.5 C224.1525 212.5 223.4925 212.5 222.8125 212.5 C218.42380937 207.39962981 216.43117931 202.07040454 214.1328125 195.796875 C211.85701069 190.11410361 209.01427217 184.67026201 204.62890625 180.34765625 C202.8125 178.5 202.8125 178.5 202.8125 176.5 C201.9771875 176.12875 201.9771875 176.12875 201.125 175.75 C197.25548998 173.65837296 193.69440734 170.83694534 190.8125 167.5 C190.8125 166.84 190.8125 166.18 190.8125 165.5 C189.99072266 165.12875 189.99072266 165.12875 189.15234375 164.75 C185.33223439 162.70920702 182.01377802 159.98330354 178.56640625 157.375 C172.74498308 153.41147784 167.71600326 152.60893504 160.8125 153.5 C156.35578647 154.73879856 152.02638653 156.26446339 147.68212891 157.84179688 C144.88012031 158.82824441 142.03616763 159.65952249 139.1875 160.5 C134.82878975 161.81985365 130.60811528 163.32108608 126.375 165 C119.63794855 167.64931094 112.79024582 169.59697841 105.8125 171.5 C104.83023438 171.80164063 103.84796875 172.10328125 102.8359375 172.4140625 C95.98039093 174.48038217 89.0440729 176.07453875 82.125 173.5 C79.8125 171.5 79.8125 171.5 78.41796875 169.58984375 C75.81340105 166.09807537 74.10148688 163.85139048 69.7890625 162.67578125 C67.52941704 162.38871673 65.26598681 162.13018615 63 161.8984375 C58.37867798 161.32077225 54.89279039 159.66127882 50.8125 157.5 C49.08 156.61248047 49.08 156.61248047 47.3125 155.70703125 C38.18765105 150.98153825 29.38987877 145.85537663 21.0625 139.8125 C18.35537294 137.88627498 15.63091544 136.24372863 12.74365234 134.61303711 C9.43899637 132.70836877 6.22492343 130.66078661 3 128.625 C-1.49081566 125.79979929 -5.98842812 123.00185129 -10.5625 120.3125 C-14.82462267 117.78387932 -18.8376989 114.967925 -22.875 112.09765625 C-25.88844551 110.0157319 -28.97402271 108.25831776 -32.1875 106.5 C-33.50143012 105.75250826 -34.8139547 105.00254 -36.125 104.25 C-37.135625 103.6725 -38.14625 103.095 -39.1875 102.5 C-39.1875 101.84 -39.1875 101.18 -39.1875 100.5 C-39.77917969 100.37616943 -40.37085938 100.25233887 -40.98046875 100.12475586 C-44.4395708 99.14556978 -47.22725285 97.04115892 -50.1875 95.0625 C-55.51951802 91.4918831 -55.51951802 91.4918831 -61.1875 88.5 C-61.1875 87.84 -61.1875 87.18 -61.1875 86.5 C-61.826875 86.273125 -62.46625 86.04625 -63.125 85.8125 C-67.32070261 84.01434174 -71.22650556 81.76095979 -75.1875 79.5 C-75.1875 78.84 -75.1875 78.18 -75.1875 77.5 C-75.93 77.335 -76.6725 77.17 -77.4375 77 C-81.48147819 74.79419371 -82.7255621 71.76854594 -84.1875 67.5 C-84.87118341 62.9705974 -84.01688182 59.76397862 -82.4375 55.5703125 C-80.90568428 51.44963265 -79.41438399 47.31972031 -77.96875 43.16796875 C-77.59363281 42.10255859 -77.21851563 41.03714844 -76.83203125 39.93945312 C-76.06289098 37.75409725 -75.29996097 35.56654665 -74.54296875 33.37695312 C-70.67577647 22.45977629 -66.48305021 15.99578448 -55.8125 10.8828125 C-52.4166094 9.37318637 -48.98718767 7.94555814 -45.55859375 6.51220703 C-40.27339171 4.25598301 -35.06144831 1.82924535 -29.83886719 -0.56762695 C-29.03094727 -0.93460693 -28.22302734 -1.30158691 -27.390625 -1.6796875 C-26.67551758 -2.00694824 -25.96041016 -2.33420898 -25.22363281 -2.67138672 C-16.64878309 -6.16095985 -7.69367738 -5.03431016 0 0 Z M-25.0625 15 C-25.8980542 15.36512695 -26.7336084 15.73025391 -27.59448242 16.10644531 C-30.13264993 17.22228259 -32.66083976 18.35837943 -35.1875 19.5 C-35.93112793 19.83193359 -36.67475586 20.16386719 -37.44091797 20.50585938 C-49.42883989 25.12187858 -49.42883989 25.12187858 -57.9375 33.875 C-58.65818065 35.9649739 -59.37194034 38.05741971 -60.06640625 40.15625 C-60.93297909 42.74087145 -61.82336902 45.31242123 -62.73046875 47.8828125 C-63.27883535 49.46347593 -63.82700874 51.0442064 -64.375 52.625 C-64.66052734 53.42292969 -64.94605469 54.22085938 -65.24023438 55.04296875 C-65.50513672 55.81511719 -65.77003906 56.58726562 -66.04296875 57.3828125 C-66.28684326 58.07777832 -66.53071777 58.77274414 -66.78198242 59.48876953 C-67.25014579 61.81070202 -66.9187648 63.27028274 -66.1875 65.5 C-64.8675 65.83 -63.5475 66.16 -62.1875 66.5 C-62.1875 67.16 -62.1875 67.82 -62.1875 68.5 C-60.00526666 69.94565318 -57.83185282 71.26620139 -55.5625 72.5625 C-54.18382027 73.36925852 -52.80624149 74.17790096 -51.4296875 74.98828125 C-50.37152832 75.61017334 -50.37152832 75.61017334 -49.29199219 76.24462891 C-46.04749024 78.18003831 -42.86267481 80.20334336 -39.6875 82.25 C-39.10492432 82.62447266 -38.52234863 82.99894531 -37.92211914 83.38476562 C-34.87750012 85.35680346 -31.90966406 87.39702674 -29 89.5625 C-26.3449577 91.78365262 -26.3449577 91.78365262 -23.1875 91.5 C-23.1875 92.16 -23.1875 92.82 -23.1875 93.5 C-22.38699219 93.91958984 -22.38699219 93.91958984 -21.5703125 94.34765625 C-17.25063837 96.67190998 -13.17717264 99.14219373 -9.1875 102 C-3.24931628 106.23892119 2.90584092 110.04925 9.8125 112.5 C9.8125 113.16 9.8125 113.82 9.8125 114.5 C10.32296875 114.768125 10.8334375 115.03625 11.359375 115.3125 C16.01286416 117.82076366 20.43371602 120.53590007 24.8125 123.5 C29.0669542 126.37960513 33.35250317 128.99493921 37.875 131.42578125 C39.8125 132.5 39.8125 132.5 42.6875 134.4375 C47.22699055 137.43356376 52.00246031 139.96662236 56.8125 142.5 C57.76125 143.03496094 58.71 143.56992188 59.6875 144.12109375 C63.29959077 145.7149288 66.3905551 146.11737123 70.3125 146.5 C75.48001456 147.00414776 79.37957108 147.71102885 83.8125 150.5 C85.39453125 152.578125 85.39453125 152.578125 86.625 154.75 C88.6448244 157.7260918 88.6448244 157.7260918 91.875 158.90234375 C94.3035624 158.67044977 96.47120177 158.18401868 98.8125 157.5 C99.86244141 157.20802734 99.86244141 157.20802734 100.93359375 156.91015625 C106.62391188 155.14563558 112.15549582 152.85640823 117.69921875 150.68359375 C120.71571557 149.53679509 123.74628864 148.50556497 126.8125 147.5 C128.18011913 147.03381642 129.54727261 146.56626547 130.9140625 146.09765625 C138.75794645 143.42807735 146.53839021 140.89615016 154.625 139.04296875 C156.83821376 138.57821457 156.83821376 138.57821457 158.8125 137.5 C169.15807354 136.57392564 176.45034323 137.83421926 185.8125 142.5 C186.8025 142.83 187.7925 143.16 188.8125 143.5 C188.8125 144.16 188.8125 144.82 188.8125 145.5 C189.8025 145.83 190.7925 146.16 191.8125 146.5 C193.14583333 147.83333333 194.47916667 149.16666667 195.8125 150.5 C196.94557454 151.3302002 198.0925685 152.14160893 199.25 152.9375 C203.13351679 155.64016158 206.28184456 158.85596267 209.5 162.3125 C210.76468271 163.72363777 210.76468271 163.72363777 212.8125 163.5 C212.8125 164.16 212.8125 164.82 212.8125 165.5 C214.25779619 166.67640387 215.70407645 167.85162752 217.15625 169.01953125 C222.68454461 173.96109648 225.31201252 180.49683379 227.859375 187.29296875 C231.94449618 197.75777592 238.1587819 204.94391567 245.69921875 213.140625 C247.83480132 215.52489833 249.82306296 217.99339274 251.8125 220.5 C253.83290748 222.77191416 253.83290748 222.77191416 255.8125 224.5 C256.4725 224.5 257.1325 224.5 257.8125 224.5 C258.1425 225.49 258.4725 226.48 258.8125 227.5 C259.4725 227.5 260.1325 227.5 260.8125 227.5 C261.06 228.11875 261.3075 228.7375 261.5625 229.375 C263.04020762 231.88710296 264.25205177 232.26107344 266.8125 233.5 C267.1425 234.49 267.4725 235.48 267.8125 236.5 C268.4725 236.5 269.1325 236.5 269.8125 236.5 C270.06 237.11875 270.3075 237.7375 270.5625 238.375 C272.01878639 240.85068687 273.19062506 241.45125002 275.8125 242.5 C275.8125 243.49 275.8125 244.48 275.8125 245.5 C276.8025 245.5 277.7925 245.5 278.8125 245.5 C279.06 246.056875 279.3075 246.61375 279.5625 247.1875 C283.97648185 255.35336643 290.65305866 260.03289071 299.3215332 262.77685547 C303.53490823 264.00002678 307.78794915 265.01556275 312.0625 266 C313.44501953 266.32363525 313.44501953 266.32363525 314.85546875 266.65380859 C317.50685408 267.27342582 320.15945872 267.88751809 322.8125 268.5 C324.06546875 268.79132813 325.3184375 269.08265625 326.609375 269.3828125 C328.68365968 269.86343944 330.75912062 270.33902921 332.8359375 270.80859375 C334.93079238 271.2951939 337.01898547 271.81093509 339.1015625 272.34765625 C348.72318346 274.76996129 358.76331742 276.71513256 367.8125 271.5 C370.62581378 269.10416349 370.62581378 269.10416349 372.8125 266.5 C373.410625 265.96375 374.00875 265.4275 374.625 264.875 C376.13930994 263.42438937 376.13930994 263.42438937 375.8125 260.5 C376.4725 260.5 377.1325 260.5 377.8125 260.5 C380.25629175 254.89964391 381.99283642 249.65626444 380.8125 243.5 C379.68445613 241.19379499 379.68445613 241.19379499 377.8125 239.5 C372.58918828 238.4052384 367.18441082 239.48122715 362.125 240.9296875 C357.94620951 241.96026759 353.67135249 242.41795143 349.41015625 242.9921875 C346.08824564 243.46107825 342.80052736 244.02643693 339.5 244.625 C330.50369911 246.10646256 324.77307992 246.17066145 316.8125 241.5 C316.10738281 241.20480469 315.40226562 240.90960938 314.67578125 240.60546875 C312.31231162 239.20324253 312.04942956 238.300691 311.3125 235.6875 C311.07015625 234.87410156 310.8278125 234.06070313 310.578125 233.22265625 C310.32546875 232.32417969 310.0728125 231.42570313 309.8125 230.5 C306.86890502 220.4890001 303.39417365 210.74624616 299.73583984 200.98046875 C298.82862876 198.54332846 297.93690156 196.10112973 297.05078125 193.65625 C294.00103293 185.25575077 290.81075562 176.9452831 287.3671875 168.69824219 C285.42742218 164.03802124 283.5806192 159.35293779 281.8125 154.625 C281.56991455 153.98578613 281.3273291 153.34657227 281.07739258 152.68798828 C279.67138523 148.94635133 278.37972373 145.18689057 277.1640625 141.37890625 C276.73287109 140.08412354 276.73287109 140.08412354 276.29296875 138.76318359 C275.73581908 137.08569245 275.20318737 135.39979423 274.69921875 133.70556641 C273.64085224 130.57983099 272.7889234 128.24988751 270.12670898 126.20532227 C265.40132372 124.0224348 261.83526824 124.52814324 257.01464844 126.16650391 C256.22606445 126.46218262 255.43748047 126.75786133 254.625 127.0625 C252.93890976 127.64484311 251.25271155 128.2268737 249.56640625 128.80859375 C248.3446167 129.24534424 248.3446167 129.24534424 247.09814453 129.69091797 C244.10970753 130.74877742 241.09360989 131.69726253 238.0625 132.625 C237.05832031 132.93308594 236.05414063 133.24117188 235.01953125 133.55859375 C228.98408783 135.33026472 222.90171279 136.9240555 216.8125 138.5 C216.14734375 138.69722656 215.4821875 138.89445312 214.796875 139.09765625 C206.17550133 140.84569067 197.85667677 139.70403651 189.8125 136.5 C188.15410126 136.12770641 186.49048725 135.7706431 184.8125 135.5 C184.8125 134.84 184.8125 134.18 184.8125 133.5 C183.8225 133.5 182.8325 133.5 181.8125 133.5 C181.8125 132.84 181.8125 132.18 181.8125 131.5 C179.97916667 129.33333333 179.97916667 129.33333333 177.8125 127.5 C177.1525 127.5 176.4925 127.5 175.8125 127.5 C174.61519401 125.25100632 173.65862034 123.06639335 172.8046875 120.66015625 C169.93925446 112.6578467 169.93925446 112.6578467 163.5703125 107.5078125 C158.21604961 105.55115552 152.71622324 104.11813019 147.203125 102.68359375 C142.92847291 101.56063794 138.84803045 100.11253717 134.72265625 98.53125 C130.92296864 97.18478352 127.06399279 96.1016609 123.1875 95 C117.79149264 93.46055604 112.70897983 91.75430882 107.6328125 89.33203125 C104.78650816 88.03103807 101.83282975 87.30542127 98.8125 86.5 C96.66509543 85.83841194 94.5194166 85.1712098 92.375 84.5 C88.29708255 83.24098349 84.23641253 82.04805299 80.0859375 81.05859375 C76.89817474 80.2753462 73.73254682 79.41449027 70.5625 78.5625 C58.38251199 75.26623693 58.38251199 75.26623693 46.0625 72.5625 C40.39426237 71.47070463 34.82029122 70.0284191 29.23046875 68.59765625 C28.54500977 68.42975586 27.85955078 68.26185547 27.15332031 68.08886719 C25.44244738 67.65847237 23.7394836 67.19628757 22.04199219 66.71582031 C13.30104193 64.4063201 5.06703074 64.14222253 -3.89993286 64.13208008 C-18.01422986 64.09065933 -30.77818609 63.27636212 -44.1875 58.5 C-45.51560254 58.14640059 -46.84634275 57.80031002 -48.1875 57.5 C-48.1875 56.84 -48.1875 56.18 -48.1875 55.5 C-48.8475 55.5 -49.5075 55.5 -50.1875 55.5 C-52.20477451 49.92282931 -52.60679299 45.31234272 -51.1875 39.5 C-49.625 37.0625 -49.625 37.0625 -48.1875 35.5 C-48.1875 34.84 -48.1875 34.18 -48.1875 33.5 C-47.56875 33.355625 -46.95 33.21125 -46.3125 33.0625 C-44.15491678 32.56847775 -44.15491678 32.56847775 -42.1875 31.5 C-39.91917291 31.37637761 -37.64666213 31.32439352 -35.375 31.3125 C-34.15167969 31.29832031 -32.92835937 31.28414062 -31.66796875 31.26953125 C-28.30475265 31.4922358 -26.24171456 32.19465087 -23.1875 33.5 C-18.76872579 34.08553865 -14.68691797 34.28719443 -10.6875 32.1875 C-8.26599778 27.84897519 -7.29503851 23.46111007 -7.1875 18.5 C-8.72980123 14.92186114 -9.64906316 13.13600182 -13.28515625 11.6328125 C-17.71206218 11.43023538 -21.07546982 13.20493889 -25.0625 15 Z " fill="#141414" transform="translate(129.1875,84.5)"/>
<path d="M0 0 C-0.49371094 0.48210937 -0.98742187 0.96421875 -1.49609375 1.4609375 C-2.45708984 2.40839844 -2.45708984 2.40839844 -3.4375 3.375 C-4.07558594 4.00148438 -4.71367188 4.62796875 -5.37109375 5.2734375 C-8.1747996 8.24523123 -8.23811362 10.63968157 -8.5625 14.625 C-8.68818359 16.12933594 -8.68818359 16.12933594 -8.81640625 17.6640625 C-8.87699219 18.43492187 -8.93757813 19.20578125 -9 20 C-11.6158611 15.51856355 -11.18816639 11.93217271 -10 7 C-8.26369669 3.70701096 -6.95431408 1.64556541 -3.875 -0.4375 C-2 -1 -2 -1 0 0 Z " fill="#747474" transform="translate(87,117)"/>
<path d="M0 0 C0.66 0.33 1.32 0.66 2 1 C-0.31 3.31 -2.62 5.62 -5 8 C-5.33 7.01 -5.66 6.02 -6 5 C-4.00856305 2.01284458 -3.23356015 1.21258505 0 0 Z " fill="#505050" transform="translate(85,116)"/>
<path d="M0 0 C4.95 0.99 4.95 0.99 10 2 C10 2.33 10 2.66 10 3 C8.72125 3.061875 7.4425 3.12375 6.125 3.1875 C5.40570313 3.22230469 4.68640625 3.25710938 3.9453125 3.29296875 C3.30335938 3.19628906 2.66140625 3.09960938 2 3 C1.34 2.01 0.68 1.02 0 0 Z " fill="#6A6A6A" transform="translate(445,351)"/>
</svg>
