<?xml version="1.0" encoding="UTF-8"?>
<svg version="1.1" xmlns="http://www.w3.org/2000/svg" width="500" height="500">
<path d="M0 0 C4.03695106 2.88897711 7.92552216 5.92630321 11.7109375 9.13671875 C13.87213715 10.92893309 15.70561574 12.17533262 18.2734375 13.26171875 C18.2734375 13.92171875 18.2734375 14.58171875 18.2734375 15.26171875 C19.005625 15.52082031 19.7378125 15.77992187 20.4921875 16.046875 C23.36813492 17.30308237 25.35685943 18.70885222 27.7734375 20.69921875 C29.07474609 21.7665625 29.07474609 21.7665625 30.40234375 22.85546875 C34.0684222 25.92799164 37.72553294 29.01076267 41.36938477 32.10961914 C44.95335487 35.15612598 48.56732466 38.16143163 52.2109375 41.13671875 C53.0978125 41.86503906 53.9846875 42.59335938 54.8984375 43.34375 C56.2945727 44.47122102 57.70562129 45.58135467 59.1484375 46.6484375 C64.27592515 50.50687196 66.34596877 55.29381881 68.2109375 61.26171875 C68.29899987 65.48871244 66.94261385 68.38922962 65.2734375 72.26171875 C64.6134375 72.26171875 63.9534375 72.26171875 63.2734375 72.26171875 C63.13514023 73.18308372 63.13514023 73.18308372 62.99404907 74.12306213 C62.2734375 76.26171875 62.2734375 76.26171875 60.72543335 77.5096283 C55.59114538 80.02419522 51.43610774 80.82878325 45.75 80.765625 C44.96378265 80.77504623 44.17756531 80.78446747 43.36752319 80.79417419 C40.87755767 80.8225931 38.3885511 80.82591238 35.8984375 80.82421875 C17.16189806 80.75649124 17.16189806 80.75649124 0.2734375 88.26171875 C-0.89322917 90.17838542 -0.89322917 90.17838542 -1.7265625 92.26171875 C-2.85943561 93.39459186 -3.99645088 94.52382209 -5.16015625 95.625 C-8.01944648 98.61263742 -10.44985628 101.96622398 -12.95703125 105.25 C-13.54097656 105.91386719 -14.12492187 106.57773438 -14.7265625 107.26171875 C-15.3865625 107.26171875 -16.0465625 107.26171875 -16.7265625 107.26171875 C-16.85611328 108.10089844 -16.85611328 108.10089844 -16.98828125 108.95703125 C-17.9445857 111.94232027 -19.52711118 113.74029436 -21.5390625 116.13671875 C-23.88958597 118.97921225 -26.14348804 121.75975574 -28.1015625 124.88671875 C-28.6378125 125.67046875 -29.1740625 126.45421875 -29.7265625 127.26171875 C-30.3865625 127.26171875 -31.0465625 127.26171875 -31.7265625 127.26171875 C-31.8296875 127.85984375 -31.9328125 128.45796875 -32.0390625 129.07421875 C-32.83838615 131.61752126 -33.86006143 132.39972614 -35.7265625 134.26171875 C-42.33849302 143.67930525 -43.91367796 154.95444403 -42.7265625 166.26171875 C-40.1246292 177.05382846 -34.11968482 186.15505111 -26.7265625 194.26171875 C-21.7265625 199.94413345 -21.7265625 199.94413345 -21.7265625 202.26171875 C-21.18386719 202.45765625 -20.64117187 202.65359375 -20.08203125 202.85546875 C-16.70960552 204.86885725 -14.50449669 207.76642728 -12.0390625 210.76171875 C-10.97239231 212.03342357 -9.9046755 213.30425122 -8.8359375 214.57421875 C-8.31064453 215.20070313 -7.78535156 215.8271875 -7.24414062 216.47265625 C-5.14341429 218.9491882 -2.97271006 221.3582409 -0.7890625 223.76171875 C2.32518323 227.19580593 5.33805783 230.67403249 8.2734375 234.26171875 C8.73878906 234.79796875 9.20414062 235.33421875 9.68359375 235.88671875 C13.2734375 240.04653769 13.2734375 240.04653769 13.2734375 242.26171875 C14.2634375 242.59171875 15.2534375 242.92171875 16.2734375 243.26171875 C18.140625 245.3359375 18.140625 245.3359375 20.1484375 247.94921875 C20.85355469 248.85542969 21.55867188 249.76164063 22.28515625 250.6953125 C22.94128906 251.54222656 23.59742188 252.38914062 24.2734375 253.26171875 C26.3738183 255.83510755 28.50687535 258.38080755 30.6875 260.88671875 C34.2734375 265.05361819 34.2734375 265.05361819 34.2734375 267.26171875 C34.82 267.45378906 35.3665625 267.64585937 35.9296875 267.84375 C39.34760824 269.91159205 41.3696685 272.80204981 43.7734375 275.94921875 C44.24652344 276.54927734 44.71960938 277.14933594 45.20703125 277.76757812 C52.73136234 287.47000505 55.66208301 295.8171342 55.5859375 308.07421875 C55.58392334 308.95134521 55.58190918 309.82847168 55.57983398 310.73217773 C55.47884094 317.26890714 54.59440404 323.11656899 52.2734375 329.26171875 C51.9434375 330.25171875 51.6134375 331.24171875 51.2734375 332.26171875 C50.6134375 332.26171875 49.9534375 332.26171875 49.2734375 332.26171875 C49.04011719 333.13570313 48.80679687 334.0096875 48.56640625 334.91015625 C45.43035812 343.03924778 38.08450453 349.64548401 30.2734375 353.26171875 C29.61472656 353.6175 28.95601563 353.97328125 28.27734375 354.33984375 C21.48979582 357.98382033 15.23995129 358.43378818 7.6484375 358.38671875 C6.81143311 358.38188477 5.97442871 358.37705078 5.11206055 358.37207031 C2.49884052 358.34768188 -0.11364884 358.30829828 -2.7265625 358.26171875 C-3.49242676 358.24915039 -4.25829102 358.23658203 -5.04736328 358.22363281 C-17.68889598 357.95425464 -30.13886698 356.41597945 -42.66113281 354.77661133 C-51.66056702 353.60457695 -60.64902591 352.6765929 -69.70133972 352.01330566 C-75.57791312 351.56487738 -81.40743769 350.95908006 -87.25137329 350.19819641 C-101.75746574 348.31591492 -116.24809172 347.31690381 -130.8515625 346.57421875 C-132.65522781 346.47941223 -132.65522781 346.47941223 -134.49533081 346.38269043 C-159.93510565 345.05507898 -185.15552476 345.09756817 -210.61074829 345.83035278 C-222.54284754 346.1725362 -234.47124155 346.39665407 -246.40844727 346.43896484 C-248.09840631 346.44571247 -249.78835575 346.45587344 -251.47827148 346.46972656 C-275.06120793 346.64951422 -275.06120793 346.64951422 -282.7265625 340.26171875 C-287.73511648 334.8470658 -288.05621768 330.27192244 -288.02734375 323.1015625 C-287.57150785 318.79776119 -285.94904689 315.94270852 -283.7265625 312.26171875 C-283.0665625 312.26171875 -282.4065625 312.26171875 -281.7265625 312.26171875 C-281.5409375 311.6790625 -281.3553125 311.09640625 -281.1640625 310.49609375 C-279.0804146 307.25738017 -276.10981171 306.09669702 -272.7265625 304.51171875 C-272.02539307 304.17245361 -271.32422363 303.83318848 -270.60180664 303.48364258 C-261.24157018 298.99696029 -251.72824114 294.83197406 -242.1875 290.74609375 C-239.09370256 289.41918289 -236.01105771 288.07017949 -232.93066406 286.71264648 C-227.80943879 284.45645535 -222.69899618 282.21370694 -217.4765625 280.19921875 C-212.67506078 278.32388474 -208.14565976 275.98811568 -203.55859375 273.64453125 C-201.15630646 272.47155235 -198.80250025 271.47356559 -196.2890625 270.57421875 C-189.24806721 267.98016785 -185.68039901 264.54134144 -181.7265625 258.26171875 C-181.05109375 257.18921875 -180.375625 256.11671875 -179.6796875 255.01171875 C-176.50486813 248.51650145 -176.28158673 241.04505888 -175.5390625 233.94921875 C-175.37441209 232.48877773 -175.20840549 231.02848894 -175.04101562 229.56835938 C-174.57626395 225.46867159 -174.14658517 221.36623407 -173.7265625 217.26171875 C-173.62851318 216.32271729 -173.53046387 215.38371582 -173.42944336 214.41625977 C-172.64170602 206.38873118 -172.22834011 198.33590424 -171.79663086 190.28295898 C-171.66449773 187.83229086 -171.52675026 185.38198009 -171.38867188 182.93164062 C-169.69170106 164.72853726 -169.69170106 164.72853726 -173.7265625 147.26171875 C-174.712072 146.24743525 -175.70961705 145.24448116 -176.7265625 144.26171875 C-176.7265625 143.60171875 -176.7265625 142.94171875 -176.7265625 142.26171875 C-177.57154297 141.875 -177.57154297 141.875 -178.43359375 141.48046875 C-180.97867718 140.12771572 -183.12024393 138.50516861 -185.4140625 136.76171875 C-195.43055544 129.69730071 -206.54208426 130.49536425 -218.2109375 132.44921875 C-228.38101585 134.79963686 -237.68817064 139.50577231 -246.71630859 144.63330078 C-250.04238303 146.49887857 -252.93130759 147.76761953 -256.7265625 148.26171875 C-256.7265625 148.92171875 -256.7265625 149.58171875 -256.7265625 150.26171875 C-257.40460938 150.62523437 -258.08265625 150.98875 -258.78125 151.36328125 C-263.5150249 153.92030648 -268.19964484 156.51511573 -272.7890625 159.32421875 C-277.65416678 162.25702886 -282.5498298 164.91809764 -287.7265625 167.26171875 C-288.72945312 167.7309375 -289.73234375 168.20015625 -290.765625 168.68359375 C-298.08896553 171.73641486 -304.39869293 172.7237774 -312.2890625 172.76171875 C-313.14612793 172.76792236 -314.00319336 172.77412598 -314.88623047 172.78051758 C-319.57715363 172.68543757 -322.97403315 172.39266348 -326.7265625 169.26171875 C-326.7265625 168.60171875 -326.7265625 167.94171875 -326.7265625 167.26171875 C-327.62375 166.91367187 -327.62375 166.91367187 -328.5390625 166.55859375 C-333.80939837 163.43403748 -335.83602565 156.52108361 -337.38574219 150.84912109 C-340.78446328 136.42481911 -344.39886964 118.34151492 -338.08984375 104.26953125 C-334.55586809 99.0647648 -330.97412479 96.59070342 -325.0390625 94.63671875 C-323.80027344 94.22292969 -322.56148437 93.80914062 -321.28515625 93.3828125 C-317.60911424 92.22471803 -313.93050111 91.08673462 -310.23046875 90.0078125 C-304.15587313 88.19775359 -298.10125462 86.29794804 -292.2890625 83.76171875 C-289.16364437 82.44575322 -286.14182601 81.44264631 -282.8984375 80.47265625 C-275.67869814 78.27283306 -268.54476706 75.85806983 -261.4140625 73.38671875 C-260.7840332 73.16928009 -260.15400391 72.95184143 -259.50488281 72.72781372 C-250.84383843 69.73823344 -242.23059617 66.65322747 -233.6953125 63.3203125 C-228.67598361 61.53052549 -224.06107041 60.7854234 -218.7265625 61.26171875 C-214.31518197 63.46740901 -212.99345392 66.58679053 -211.078125 70.9296875 C-210.63549316 71.92637451 -210.19286133 72.92306152 -209.73681641 73.94995117 C-209.40343262 74.71283447 -209.07004883 75.47571777 -208.7265625 76.26171875 C-207.03128418 76.28359253 -207.03128418 76.28359253 -205.30175781 76.3059082 C-201.10449751 76.3639256 -196.90777177 76.44115812 -192.7109375 76.52416992 C-190.89527061 76.55740311 -189.07950082 76.58544009 -187.26367188 76.6081543 C-184.65189808 76.64173016 -182.04106596 76.69404637 -179.4296875 76.75 C-178.21384979 76.75958488 -178.21384979 76.75958488 -176.97344971 76.7693634 C-173.61823747 76.85669383 -171.14859415 77.02830527 -168.18261719 78.66870117 C-166.7265625 80.26171875 -166.7265625 80.26171875 -166.7265625 82.26171875 C-166.0871875 82.52984375 -165.4478125 82.79796875 -164.7890625 83.07421875 C-162.7265625 84.26171875 -162.7265625 84.26171875 -161.7265625 87.26171875 C-160.7365625 87.59171875 -159.7465625 87.92171875 -158.7265625 88.26171875 C-157.26965889 89.89678414 -155.88292064 91.595042 -154.5390625 93.32421875 C-151.75069994 96.82881661 -148.97314224 100.11529331 -145.7265625 103.19921875 C-138.94282757 109.79186255 -132.00635481 117.13925322 -131.56079102 126.88916016 C-131.5460539 128.4221412 -131.54094303 129.95523071 -131.54296875 131.48828125 C-131.54448692 132.78386459 -131.54448692 132.78386459 -131.54603577 134.10562134 C-131.65433484 146.49388816 -132.58004608 158.85432037 -133.38006592 171.21289062 C-134.82133501 193.55051016 -136.09198521 215.88049289 -136.6015625 238.26171875 C-136.62693085 239.22615906 -136.65229919 240.19059937 -136.67843628 241.18426514 C-136.74597578 243.85584701 -136.79828029 246.52718065 -136.84375 249.19921875 C-136.87298805 250.35364975 -136.87298805 250.35364975 -136.90281677 251.53140259 C-136.94185397 255.23545733 -136.96375567 258.19647673 -134.7265625 261.26171875 C-132.64728383 261.99968874 -132.64728383 261.99968874 -130.2890625 262.07421875 C-129.50660156 262.14253906 -128.72414063 262.21085937 -127.91796875 262.28125 C-125.54604267 262.37252339 -125.54604267 262.37252339 -122.7265625 261.26171875 C-121.37736496 258.46253088 -121.37736496 258.46253088 -120.2890625 255.01171875 C-120.0729834 254.37766113 -119.8569043 253.74360352 -119.63427734 253.09033203 C-117.9440124 248.07941375 -116.42035329 243.0188151 -114.890625 237.95703125 C-113.41710102 233.27933432 -111.83556485 228.64431533 -110.2265625 224.01171875 C-109.94184082 223.18397949 -109.65711914 222.35624023 -109.36376953 221.50341797 C-107.66611359 216.65449423 -105.77474674 211.96055934 -103.61889648 207.29663086 C-102.40674487 204.53239454 -101.49150413 201.70233494 -100.56640625 198.83203125 C-97.74925633 190.21024219 -94.56867114 181.76716149 -91.03125 173.41796875 C-86.59586187 162.68804776 -82.78799715 151.69263857 -78.83984375 140.77709961 C-76.12106771 133.28554855 -73.30435692 125.83411777 -70.42822266 118.40161133 C-68.37344194 113.06611969 -66.50322012 107.69542123 -64.7265625 102.26171875 C-64.16669233 100.58939865 -63.60544793 98.91753812 -63.04296875 97.24609375 C-59.81423341 87.61999958 -56.63721131 77.98970469 -53.7265625 68.26171875 C-53.24878604 66.66924439 -52.77091357 65.07679884 -52.29296875 63.484375 C-51.50586074 60.86117759 -50.71941064 58.23779244 -49.93505859 55.61376953 C-48.58205188 51.09095881 -47.20515668 46.5777629 -45.7890625 42.07421875 C-44.4516305 37.80558163 -43.25067783 33.5137065 -42.1015625 29.19140625 C-41.65478149 27.53274536 -41.65478149 27.53274536 -41.19897461 25.84057617 C-40.60521982 23.62757702 -40.02218741 21.41166503 -39.45141602 19.19262695 C-36.95565489 9.93490178 -33.69752368 2.85835107 -25.7265625 -2.73828125 C-17.58282094 -5.44714686 -7.21516484 -4.59992601 0 0 Z M-25.7265625 12.26171875 C-27.05970876 15.20679928 -27.96804304 18.21842114 -28.8515625 21.32421875 C-29.10454102 22.16678223 -29.35751953 23.0093457 -29.61816406 23.87744141 C-31.27975465 29.48075366 -32.78977961 35.11663502 -34.0859375 40.81640625 C-34.7265625 43.26171875 -34.7265625 43.26171875 -35.6796875 45.58203125 C-36.77152774 48.37681634 -37.47676837 51.18388719 -38.17724609 54.09765625 C-39.13462819 57.86931622 -40.34753267 61.55869859 -41.5390625 65.26171875 C-42.0823308 66.96344607 -42.62529567 68.66527028 -43.16796875 70.3671875 C-43.43496582 71.2029834 -43.70196289 72.0387793 -43.97705078 72.89990234 C-44.99833448 76.11811034 -45.98535925 79.34663522 -46.9765625 82.57421875 C-52.47418148 100.27477994 -58.28887146 117.92509295 -64.95507812 135.22070312 C-66.2038582 138.52443774 -67.38795177 141.85123494 -68.58203125 145.17504883 C-71.82968521 154.21108602 -75.24114067 163.15455691 -78.85791016 172.04907227 C-81.33325841 178.17368951 -83.56592888 184.35875224 -85.71923828 190.6027832 C-86.92108823 194.06336764 -88.17762793 197.44166637 -89.7265625 200.76171875 C-91.8768037 205.38693145 -93.49980522 210.18322887 -95.16625977 214.99707031 C-97.74487613 222.40890894 -100.53687943 229.73549803 -103.32763672 237.06958008 C-106.262955 244.85269608 -108.92825899 252.7026668 -111.34350586 260.66308594 C-112.74954026 265.10765558 -113.84917121 268.3670062 -117.7265625 271.26171875 C-121.4080432 272.48887898 -124.83067012 272.44578689 -128.6640625 272.44921875 C-129.38013672 272.46146484 -130.09621094 272.47371094 -130.83398438 272.48632812 C-134.62031339 272.49685545 -137.57838812 272.47874296 -140.7265625 270.26171875 C-145.79890414 264.71753138 -146.87988923 261.20536041 -146.859375 253.89453125 C-146.86083023 253.15726807 -146.86228546 252.42000488 -146.86378479 251.66040039 C-146.86604608 249.23578923 -146.85970151 246.81131622 -146.8515625 244.38671875 C-146.84967926 243.54929138 -146.84779602 242.71186401 -146.84585571 241.84906006 C-146.79489153 222.47113892 -146.26776899 203.16191381 -144.9921875 183.82421875 C-144.92526199 182.80504364 -144.85833649 181.78586853 -144.78938293 180.73580933 C-144.45412708 175.66282166 -144.10808312 170.59094294 -143.74291992 165.52001953 C-143.04728062 155.62833094 -142.52199386 145.73127249 -142.32421875 135.81640625 C-142.28775742 134.87580353 -142.25129608 133.93520081 -142.21372986 132.96609497 C-142.15333419 126.67948376 -143.36080774 121.98367077 -147.7265625 117.26171875 C-148.3865625 117.26171875 -149.0465625 117.26171875 -149.7265625 117.26171875 C-149.9534375 116.53984375 -150.1803125 115.81796875 -150.4140625 115.07421875 C-152.00670557 111.66141218 -154.02644525 109.90273631 -156.7265625 107.26171875 C-159.69792102 104.13106179 -162.62084851 100.9548503 -165.5546875 97.7890625 C-166.14765625 97.15097656 -166.740625 96.51289063 -167.3515625 95.85546875 C-167.88007813 95.28505859 -168.40859375 94.71464844 -168.953125 94.12695312 C-169.83097656 93.20366211 -169.83097656 93.20366211 -170.7265625 92.26171875 C-171.46656494 91.37121826 -172.20656738 90.48071777 -172.96899414 89.56323242 C-176.58482996 86.54539406 -178.56376857 86.70621301 -183.22265625 86.84375 C-184.28940331 86.86147713 -184.28940331 86.86147713 -185.37770081 86.87956238 C-187.64110489 86.92060346 -189.90168626 86.99537435 -192.1640625 87.07421875 C-194.42255211 87.13718914 -196.68077257 87.19273368 -198.93971252 87.23674011 C-200.99199871 87.2790707 -203.04379049 87.34364514 -205.09545898 87.40942383 C-208.75651159 87.26050049 -211.38992247 86.75639322 -214.7265625 85.26171875 C-215.3865625 84.27171875 -216.0465625 83.28171875 -216.7265625 82.26171875 C-217.3865625 82.26171875 -218.0465625 82.26171875 -218.7265625 82.26171875 C-219.7165625 79.29171875 -220.7065625 76.32171875 -221.7265625 73.26171875 C-224.29607831 72.26706747 -226.10026325 72.0348702 -228.7109375 72.98046875 C-230.2475452 73.69973193 -231.77979634 74.42834433 -233.30859375 75.1640625 C-235.56857641 76.1899997 -237.71410697 76.91173109 -240.1015625 77.57421875 C-246.08375806 79.27402628 -251.86831896 81.47833044 -257.68701172 83.66137695 C-262.99749495 85.64854327 -268.33724125 87.50021423 -273.7265625 89.26171875 C-284.16022295 92.70740291 -294.57248718 96.21342507 -304.96520996 99.7807312 C-306.25355598 100.22265446 -307.54220695 100.66368978 -308.83117676 101.10379028 C-320.7863322 104.24052099 -320.7863322 104.24052099 -329.7265625 111.57421875 C-332.44813194 120.9391223 -329.62350359 131.68425809 -327.9765625 141.07421875 C-327.83210693 141.94522217 -327.68765137 142.81622559 -327.53881836 143.71362305 C-326.38292736 149.84398394 -324.41156215 155.1724838 -320.7265625 160.26171875 C-316.16117606 163.30530971 -312.07970139 162.87963879 -306.7265625 162.26171875 C-297.53463166 159.92846594 -289.33401395 155.71406908 -281.1015625 151.12890625 C-278.01307657 149.42023001 -274.89459054 147.8167569 -271.7265625 146.26171875 C-271.7265625 145.60171875 -271.7265625 144.94171875 -271.7265625 144.26171875 C-270.9221875 144.03484375 -270.1178125 143.80796875 -269.2890625 143.57421875 C-263.69762911 141.51421697 -258.66107785 138.61999549 -253.7890625 135.19921875 C-250.50807713 133.12349331 -247.31392223 131.77567154 -243.6953125 130.40234375 C-240.84717374 129.30805886 -238.04203048 128.12995465 -235.23144531 126.94335938 C-220.91595205 120.99836318 -201.86039384 117.55060254 -186.8125 123.2265625 C-176.08536326 128.54995433 -166.16090506 136.25776848 -161.828125 147.6171875 C-157.65536501 160.57571278 -159.8857723 174.55048269 -160.94628906 187.8684082 C-161.51563224 195.06306104 -161.91543946 202.23717209 -162.1640625 209.44921875 C-163.85840264 253.62395742 -163.85840264 253.62395742 -175.3828125 268.3828125 C-176.92046849 270.14785425 -176.92046849 270.14785425 -176.7265625 272.26171875 C-177.31050781 272.54273438 -177.89445313 272.82375 -178.49609375 273.11328125 C-180.57046941 274.18134858 -182.46699987 275.35500457 -184.4140625 276.63671875 C-188.68513062 279.32474878 -193.0801709 281.31412946 -197.7265625 283.26171875 C-200.01883535 284.23946546 -202.31045487 285.21874474 -204.6015625 286.19921875 C-205.80554688 286.71355469 -207.00953125 287.22789062 -208.25 287.7578125 C-212.15555849 289.44729567 -216.02336979 291.20952034 -219.890625 292.984375 C-223.10938954 294.43414911 -226.35256377 295.8185736 -229.6015625 297.19921875 C-235.37258134 299.65806468 -241.0748892 302.23975809 -246.76171875 304.88671875 C-249.32443925 306.07522681 -251.89446184 307.24110736 -254.4765625 308.38671875 C-255.17910156 308.69867188 -255.88164062 309.010625 -256.60546875 309.33203125 C-258.08838641 309.98200252 -259.57577743 310.6218199 -261.06640625 311.25390625 C-270.85408704 315.28200373 -270.85408704 315.28200373 -277.5390625 323.01171875 C-277.84681216 326.70471469 -277.31699881 328.89733425 -275.7265625 332.26171875 C-269.25829855 336.00561068 -261.67570309 335.65501603 -254.45361328 335.5546875 C-253.25340546 335.5503067 -252.05319763 335.5459259 -250.81661987 335.54141235 C-247.53732638 335.52705724 -244.2584463 335.49951366 -240.97929239 335.46710587 C-237.49478199 335.43681165 -234.01021805 335.42654557 -230.52560425 335.41479492 C-220.89302355 335.37881642 -211.26068363 335.31373845 -201.62828064 335.24610901 C-190.76786553 335.16987269 -179.90752582 335.10480417 -169.046875 335.07421875 C-168.3415276 335.07216383 -167.6361802 335.07010892 -166.90945864 335.06799173 C-133.78897227 334.98323942 -101.16535613 336.99452269 -68.34765625 341.42578125 C-62.00355189 342.26199732 -55.75604197 342.65516255 -49.36328125 342.91796875 C-43.38472015 343.27250005 -37.46202529 344.17568993 -31.53137207 344.98233032 C-21.67742789 346.32215179 -11.85549691 347.59749928 -1.9140625 348.07421875 C-1.11645508 348.11482422 -0.31884766 348.15542969 0.50292969 348.19726562 C12.28633727 348.62940765 22.15751143 347.04565866 31.58984375 339.37890625 C33.29170465 337.7354931 34.87620384 336.17061544 36.2734375 334.26171875 C36.2734375 333.60171875 36.2734375 332.94171875 36.2734375 332.26171875 C36.9334375 332.26171875 37.5934375 332.26171875 38.2734375 332.26171875 C45.08477415 319.80893152 46.6612546 309.44906655 43.2109375 295.44921875 C42.746875 293.87140625 42.746875 293.87140625 42.2734375 292.26171875 C41.6134375 292.26171875 40.9534375 292.26171875 40.2734375 292.26171875 C40.0671875 291.5965625 39.8609375 290.93140625 39.6484375 290.24609375 C37.76865005 286.16610053 35.10368036 282.97609621 32.2734375 279.51171875 C31.726875 278.82722656 31.1803125 278.14273437 30.6171875 277.4375 C27.88147421 273.83103926 27.88147421 273.83103926 24.2734375 271.26171875 C23.9640625 270.62234375 23.6546875 269.98296875 23.3359375 269.32421875 C22.31997828 266.94200382 22.31997828 266.94200382 19.2734375 265.26171875 C18.9434375 264.27171875 18.6134375 263.28171875 18.2734375 262.26171875 C17.16907933 261.12284939 16.05695295 259.99082126 14.9140625 258.890625 C8.59208009 252.61379961 2.93460815 245.70637386 -2.66796875 238.79296875 C-5.29508329 235.56266472 -7.99449146 232.40322823 -10.7265625 229.26171875 C-11.45166016 228.41480469 -11.45166016 228.41480469 -12.19140625 227.55078125 C-15.50910847 223.70581584 -18.9254082 219.96792089 -22.3996582 216.26489258 C-31.26630399 206.80552596 -39.56016343 197.09551787 -46.7265625 186.26171875 C-47.12746094 185.67003906 -47.52835937 185.07835937 -47.94140625 184.46875 C-54.2793792 174.39974391 -55.81345096 161.5874722 -53.4765625 150.13671875 C-51.67607664 142.66470244 -49.87616363 135.78252053 -45.7265625 129.26171875 C-45.7265625 128.60171875 -45.7265625 127.94171875 -45.7265625 127.26171875 C-45.0665625 127.26171875 -44.4065625 127.26171875 -43.7265625 127.26171875 C-41.99387182 125.06539214 -40.37881788 122.87053207 -38.7890625 120.57421875 C-38.34626953 119.94837891 -37.90347656 119.32253906 -37.44726562 118.67773438 C-35.54151712 115.96537995 -33.72874283 113.2654253 -32.046875 110.40625 C-30.7265625 108.26171875 -30.7265625 108.26171875 -28.5390625 106.63671875 C-27.9409375 106.18296875 -27.3428125 105.72921875 -26.7265625 105.26171875 C-26.7265625 104.27171875 -26.7265625 103.28171875 -26.7265625 102.26171875 C-26.0665625 102.26171875 -25.4065625 102.26171875 -24.7265625 102.26171875 C-23.18447807 100.58485643 -23.18447807 100.58485643 -21.6015625 98.38671875 C-20.9828125 97.56945312 -20.3640625 96.7521875 -19.7265625 95.91015625 C-19.0665625 95.03617187 -18.4065625 94.1621875 -17.7265625 93.26171875 C-6.50743899 78.85534425 -6.50743899 78.85534425 -1.7265625 77.26171875 C-1.7265625 76.60171875 -1.7265625 75.94171875 -1.7265625 75.26171875 C-1.07429688 75.06835938 -0.42203125 74.875 0.25 74.67578125 C1.12398438 74.41539062 1.99796875 74.155 2.8984375 73.88671875 C3.75695312 73.63148438 4.61546875 73.37625 5.5 73.11328125 C8.2734228 72.30109264 8.2734228 72.30109264 10.89941406 71.22558594 C15.04026314 70.04265742 18.75057359 69.98286302 23.03125 69.98828125 C24.7252672 69.96800686 26.41927758 69.94715637 28.11328125 69.92578125 C30.76421922 69.90312787 33.4148874 69.88668262 36.06591797 69.88085938 C38.6381809 69.87134833 41.20925357 69.83761077 43.78125 69.80078125 C44.57298615 69.80582672 45.36472229 69.81087219 46.18045044 69.81607056 C49.77449443 69.75175079 51.85809716 69.57482897 54.76904297 67.38037109 C56.41744117 65.34375788 56.41744117 65.34375788 56.8359375 62.82421875 C55.64940412 57.41890001 50.00197374 54.1266775 45.9140625 50.6875 C44.2734375 49.26171875 44.2734375 49.26171875 41.9609375 46.88671875 C40.42378211 45.03050485 40.42378211 45.03050485 38.2734375 45.26171875 C37.9434375 44.27171875 37.6134375 43.28171875 37.2734375 42.26171875 C36.6340625 42.11734375 35.9946875 41.97296875 35.3359375 41.82421875 C33.2734375 41.26171875 33.2734375 41.26171875 32.0234375 39.19921875 C31.6521875 38.24015625 31.6521875 38.24015625 31.2734375 37.26171875 C30.2834375 37.26171875 29.2934375 37.26171875 28.2734375 37.26171875 C27.9434375 36.27171875 27.6134375 35.28171875 27.2734375 34.26171875 C25.58716196 32.69555953 25.58716196 32.69555953 23.5234375 31.26171875 C22.80285156 30.73964844 22.08226562 30.21757813 21.33984375 29.6796875 C19.7502932 28.58893731 18.11401105 27.56606288 16.4609375 26.57421875 C14.2734375 25.26171875 14.2734375 25.26171875 13 23.95703125 C10.66153614 21.66089252 8.08718412 19.78316749 5.4609375 17.82421875 C4.44386719 17.06238281 3.42679687 16.30054688 2.37890625 15.515625 C-0.60780415 13.34791192 -3.6424332 11.2876949 -6.7265625 9.26171875 C-7.7165625 8.60171875 -8.7065625 7.94171875 -9.7265625 7.26171875 C-12.29534963 6.83135554 -12.29534963 6.83135554 -15.1015625 6.82421875 C-16.03742188 6.78425781 -16.97328125 6.74429688 -17.9375 6.703125 C-21.94967785 7.50668443 -23.23856457 9.03561477 -25.7265625 12.26171875 Z " fill="#171717" transform="translate(386.7265625,72.73828125)"/>
<path d="M0 0 C0.99 0.33 1.98 0.66 3 1 C-0.63 4.63 -4.26 8.26 -8 12 C-8.66 11.67 -9.32 11.34 -10 11 C-6.83451967 7.11098131 -3.59634744 3.49359465 0 0 Z " fill="#585858" transform="translate(382,150)"/>
<path d="M0 0 C0.99 0.33 1.98 0.66 3 1 C2.0919838 2.13199353 1.17316174 3.25532363 0.25 4.375 C-0.26046875 5.00148438 -0.7709375 5.62796875 -1.296875 6.2734375 C-3.08199481 8.08312318 -4.67949644 9.00117455 -7 10 C-6.34 8.35 -5.68 6.7 -5 5 C-4.34 5 -3.68 5 -3 5 C-2.690625 4.360625 -2.38125 3.72125 -2.0625 3.0625 C-1 1 -1 1 0 0 Z " fill="#555555" transform="translate(108,380)"/>
</svg>
