<?xml version="1.0" encoding="UTF-8"?>
<svg version="1.1" xmlns="http://www.w3.org/2000/svg" width="500" height="500">
<path d="M0 0 C0.67111816 0.4316748 1.34223633 0.86334961 2.03369141 1.30810547 C16.13067279 10.39201838 16.13067279 10.39201838 19 19 C19.79098519 27.25247654 18.03298063 35.14542882 16.375 43.1875 C16.10485129 44.5390861 15.83582997 45.89089797 15.56787109 47.24291992 C14.57961642 52.21647845 13.57089664 57.18583978 12.56274414 62.15539551 C11.70850896 66.37034025 10.86227029 70.58674486 10.02618408 74.80532837 C9.63509236 76.76200672 9.232491 78.71637347 8.82958984 80.6706543 C6.60731103 90.77327374 6.60731103 90.77327374 7 101 C10.06912022 105.25730562 13.9521028 107.29801478 18.58203125 109.64453125 C19.22056534 109.97135895 19.85909943 110.29818665 20.51698303 110.63491821 C22.61084802 111.70353221 24.71146427 112.75806462 26.8125 113.8125 C28.28635989 114.56116339 29.75982399 115.31060638 31.23291016 116.06079102 C35.81432449 118.38909794 40.40559744 120.69744652 45 123 C45.72890442 123.36532837 46.45780884 123.73065674 47.20880127 124.10705566 C53.43836171 127.22753916 59.67223279 130.33936739 65.90771484 133.44799805 C107.3105354 154.09969775 107.3105354 154.09969775 110.8125 164.38671875 C112.74581143 172.27704604 111.56988012 177.73002592 107.4375 184.625 C102.58871701 192.36578709 92.61591255 196.44894395 84.8125 200.625 C82.85539442 201.68215406 80.89836526 202.73944963 78.94140625 203.796875 C77.95156738 204.32990234 76.96172852 204.86292969 75.94189453 205.41210938 C72.26164404 207.39852839 68.59233654 209.4045583 64.92358398 211.41210938 C55.88712774 216.35653872 46.82438943 221.25058358 37.75 226.125 C29.10284426 230.77261879 20.48974735 235.47289444 11.91796875 240.2578125 C5.62156778 243.77251594 -0.68792302 247.26355148 -7 250.75 C-7.93327621 251.26551422 -7.93327621 251.26551422 -8.88540649 251.79144287 C-17.56188648 256.58114096 -26.2660589 261.31565752 -35 266 C-44.13636515 270.90073761 -53.23824182 275.86047395 -62.3125 280.875 C-62.9142807 281.20754791 -63.5160614 281.54009583 -64.13607788 281.88272095 C-67.80809142 283.91248427 -71.47911238 285.94403812 -75.14990234 287.97601318 C-80.70256668 291.04928613 -86.25688133 294.1195711 -91.8125 297.1875 C-92.41608337 297.52082336 -93.01966675 297.85414673 -93.64154053 298.1975708 C-103.81462602 303.81340347 -114.02131541 309.36556338 -124.24609375 314.88671875 C-128.20269462 317.02416171 -132.15259425 319.17336488 -136.09765625 321.33203125 C-137.08902588 321.8744043 -138.08039551 322.41677734 -139.10180664 322.97558594 C-140.96753629 323.99717154 -142.83265733 325.01986984 -144.69702148 326.04394531 C-147.12574094 327.37338876 -149.56006982 328.69125871 -152 330 C-153.09368896 330.58950439 -153.09368896 330.58950439 -154.20947266 331.19091797 C-160.59793654 334.5283991 -166.46820447 335.94467458 -173.6796875 334.44140625 C-180.92655277 331.96337481 -185.27926334 327.60359939 -189.12890625 321.08984375 C-191.70815264 315.45713976 -191.66021226 309.90136584 -190 304 C-187.52328499 298.38769553 -184.2244153 293.20395315 -181 288 C-180.32066406 286.87078125 -179.64132813 285.7415625 -178.94140625 284.578125 C-176.22282822 280.09274475 -173.44788702 275.65471808 -170.53515625 271.29296875 C-170.12330078 270.6705127 -169.71144531 270.04805664 -169.28710938 269.40673828 C-168.49426331 268.21272728 -167.69269236 267.02444517 -166.88085938 265.84326172 C-164.49085379 262.24014723 -163.31356808 259.31759125 -163 255 C-163.54136234 251.70607887 -163.54136234 251.70607887 -165 249 C-167.73540527 248.00462603 -170.27652473 247.88462161 -173.16674805 247.91821289 C-173.97826828 247.9247438 -174.78978851 247.93127472 -175.62590027 247.93800354 C-176.49572037 247.94943893 -177.36554047 247.96087433 -178.26171875 247.97265625 C-180.12174288 247.98531004 -181.98176903 247.99767044 -183.84179688 248.00976562 C-186.76007437 248.03449472 -189.67824569 248.06239359 -192.59643555 248.09594727 C-195.42236965 248.12639036 -198.24817165 248.14400276 -201.07421875 248.16015625 C-202.36376717 248.18034569 -202.36376717 248.18034569 -203.67936707 248.20094299 C-219.3738127 248.26504173 -227.88040134 241.42838036 -239 231 C-240.95046916 229.17259862 -242.90130495 227.34559416 -244.85302734 225.51953125 C-246.17874248 224.27737363 -247.50207465 223.03266676 -248.82275391 221.78515625 C-251.29994235 219.45583049 -253.69798857 217.22096044 -256.4453125 215.2109375 C-256.95835937 214.81132812 -257.47140625 214.41171875 -258 214 C-258 213.34 -258 212.68 -258 212 C-258.59458008 211.72760498 -259.18916016 211.45520996 -259.80175781 211.17456055 C-261.94440556 210.02970512 -263.42006637 208.87355302 -265.171875 207.20703125 C-265.74929443 206.66312744 -266.32671387 206.11922363 -266.92163086 205.55883789 C-267.52499268 204.98254639 -268.12835449 204.40625488 -268.75 203.8125 C-270.01612382 202.61893899 -271.28304361 201.42622175 -272.55078125 200.234375 C-273.1535791 199.66654297 -273.75637695 199.09871094 -274.37744141 198.51367188 C-276.19429226 196.81874631 -278.0504474 195.17878346 -279.9375 193.5625 C-281.29368831 192.37730935 -282.64743521 191.18932422 -284 190 C-284.56396484 189.50918945 -285.12792969 189.01837891 -285.70898438 188.51269531 C-302.62670635 173.69044447 -302.62670635 173.69044447 -304.625 162.5 C-302.77139572 152.11981605 -296.43023348 145.9550159 -289.05859375 138.98046875 C-286.44102901 136.4989073 -284.24345909 133.82636659 -282 131 C-277.01663765 127.33875419 -273.46628169 125.83720788 -267.3125 125.6875 C-265.82169922 125.63142578 -265.82169922 125.63142578 -264.30078125 125.57421875 C-256.64602363 126.56163719 -251.19524117 131.15729311 -245.625 136.1875 C-241.59048765 139.98868746 -241.59048765 139.98868746 -237 143 C-237 143.66 -237 144.32 -237 145 C-236.44441406 145.23589844 -235.88882813 145.47179687 -235.31640625 145.71484375 C-232.43624409 147.3127752 -230.33630924 149.305005 -227.9375 151.5625 C-224.06760099 155.13192492 -220.16780328 158.62461486 -216.125 162 C-215.26132813 162.721875 -214.39765625 163.44375 -213.5078125 164.1875 C-211.04751681 165.96565763 -208.82130767 166.93238284 -206 168 C-212.51939377 150.39537149 -219.33977157 132.92499608 -226.30126953 115.49121094 C-227.55706701 112.34391285 -228.80987907 109.19543839 -230.0625 106.046875 C-230.44470703 105.09286804 -230.82691406 104.13886108 -231.22070312 103.15594482 C-231.57197266 102.27271545 -231.92324219 101.38948608 -232.28515625 100.47949219 C-232.59332275 99.70804871 -232.90148926 98.93660522 -233.21899414 98.14178467 C-235.85554253 90.91146899 -236.20088145 83.86068296 -233 76.75 C-229.74732864 70.87301425 -225.29008303 67.85594427 -219.5625 64.625 C-212.2756608 62.84772215 -207.14231613 63.98014697 -200.55297852 67.41088867 C-196.42240427 69.98198055 -193.33417338 73.31132387 -190.0625 76.875 C-179.47162412 87.8949836 -169.16325205 93.72570665 -154.34033203 97.44165039 C-144.56960416 99.90678683 -137.59647058 101.88177594 -132.22402954 110.65158081 C-130.14792071 114.63479663 -129.16841489 118.80096066 -128.140625 123.15234375 C-127.90591492 124.09308243 -127.67120483 125.03382111 -127.42938232 126.00306702 C-126.6896058 128.97811204 -125.96904732 131.95738403 -125.25 134.9375 C-124.51296688 137.94157016 -123.77199202 140.94461745 -123.027771 143.94691467 C-122.56756843 145.80867152 -122.1122276 147.67163805 -121.66217041 149.53587341 C-121.45815613 150.37086868 -121.25414185 151.20586395 -121.04394531 152.06616211 C-120.77677704 153.17247231 -120.77677704 153.17247231 -120.50421143 154.3011322 C-120.14178205 156.01711491 -120.14178205 156.01711491 -119 157 C-113.10233347 157 -110.1986508 155.08850644 -105.97265625 151.07421875 C-90.46482133 134.76796064 -81.54223835 112.80347343 -82.06347656 90.25390625 C-82.54022321 79.61715875 -83.72436274 69.0461818 -85.03125 58.484375 C-85.12078949 57.75915649 -85.21032898 57.03393799 -85.30258179 56.28674316 C-85.7438807 52.73682404 -86.19864748 49.18948614 -86.67822266 45.64453125 C-88.48501776 31.97917162 -90.12030134 18.83207439 -82.55078125 6.671875 C-76.48427566 -1.12597039 -67.51858999 -5.37924252 -59 -10 C-57.56755013 -10.79138038 -56.13525407 -11.58303923 -54.703125 -12.375 C-53.36563293 -13.10609014 -52.02713571 -13.83534527 -50.6875 -14.5625 C-49.76408813 -15.06438843 -49.76408813 -15.06438843 -48.82202148 -15.57641602 C-31.34643081 -24.85002531 -14.38580194 -9.40912609 0 0 Z M-43.6875 -3.625 C-47.26656728 -1.56240401 -50.8494517 0.46113089 -54.5078125 2.37890625 C-56.10938462 3.23175277 -57.7109471 4.0846174 -59.3125 4.9375 C-60.07715576 5.33179199 -60.84181152 5.72608398 -61.62963867 6.13232422 C-67.65749989 9.39101933 -72.77062917 13.31188752 -75 20 C-75.6819439 32.36307079 -74.30586651 44.34459555 -72.5625 56.5625 C-68.18711778 87.76259855 -68.12232878 114.87808133 -84 143 C-84.5671875 144.01964844 -85.134375 145.03929687 -85.71875 146.08984375 C-91.76197115 156.25214724 -100.3406946 166.14276271 -112.046875 169.60546875 C-117.79531581 170.76665379 -122.07269827 170.17537223 -127 167 C-133.52017263 160.86336694 -135.1567977 150.85735555 -136.96484375 142.41015625 C-137.12730591 141.65245941 -137.28976807 140.89476257 -137.45715332 140.11410522 C-138.12625683 136.96239954 -138.78665739 133.80930322 -139.42456055 130.65112305 C-139.89971604 128.31674619 -140.39919695 125.98863625 -140.90234375 123.66015625 C-141.03897934 122.94972672 -141.17561493 122.23929718 -141.31639099 121.50733948 C-142.07418251 118.07679293 -142.84975885 116.15408012 -145.32177734 113.61889648 C-147.92052605 112.04803936 -150.01398054 111.16071995 -152.94921875 110.4375 C-153.88056641 110.19773437 -154.81191406 109.95796875 -155.77148438 109.7109375 C-156.73376953 109.47632813 -157.69605469 109.24171875 -158.6875 109 C-176.42020294 104.58803563 -188.3532955 97.37382509 -201 84 C-205.81046736 78.79364168 -205.81046736 78.79364168 -212.375 76.625 C-216.67661429 77.06999458 -218.12653878 77.79814321 -221 81 C-222.953622 85.39423384 -223.31026859 87.94566681 -221.7890625 92.52734375 C-221.08897934 94.33909273 -220.36564289 96.14195025 -219.625 97.9375 C-219.03489136 99.4383313 -219.03489136 99.4383313 -218.43286133 100.96948242 C-217.25677335 103.94570954 -216.06064204 106.91312775 -214.85760498 109.87854004 C-213.21496943 113.94193243 -211.59597657 118.01479978 -209.97265625 122.0859375 C-207.85190495 127.40225194 -205.72797926 132.71717202 -203.58642578 138.02514648 C-191.7380368 167.40461735 -191.7380368 167.40461735 -195.1875 175.9375 C-197.85119365 178.96859967 -200.00039055 180.69178952 -204.078125 181.3203125 C-213.03680169 181.77738784 -218.71108572 176.69214495 -225.0625 171 C-226.38117899 169.83816539 -227.70019743 168.67671595 -229.01953125 167.515625 C-230.01267334 166.63680664 -230.01267334 166.63680664 -231.02587891 165.74023438 C-234.07764772 163.05002808 -237.16072349 160.39697166 -240.25 157.75 C-240.82427734 157.25757813 -241.39855469 156.76515625 -241.99023438 156.2578125 C-247.25857449 151.75413432 -252.60485874 147.35120336 -258 143 C-258.8765625 142.27683594 -259.753125 141.55367187 -260.65625 140.80859375 C-263.29426516 138.77292538 -264.67363388 138.08113088 -268 138 C-273.27239986 140.09563084 -276.38719899 143.10520892 -280.0625 147.25 C-280.56587891 147.79785156 -281.06925781 148.34570312 -281.58789062 148.91015625 C-283.09710827 150.5775196 -284.55579002 152.27612381 -286 154 C-286.75192627 154.87688477 -286.75192627 154.87688477 -287.51904297 155.77148438 C-289.80639716 158.64232312 -290.94589216 160.30200893 -291.234375 164.0234375 C-289.46953139 168.27916798 -286.68539475 170.63913166 -283.25 173.625 C-281.88658087 174.84880474 -280.5233024 176.07276621 -279.16015625 177.296875 C-278.46809082 177.90982422 -277.77602539 178.52277344 -277.06298828 179.15429688 C-275.07415226 180.93365786 -273.12330777 182.74546817 -271.18359375 184.578125 C-270.59352539 185.13419434 -270.00345703 185.69026367 -269.39550781 186.26318359 C-268.27431434 187.32123381 -267.1551043 188.38139058 -266.03808594 189.44384766 C-263.45261887 192.16610225 -263.45261887 192.16610225 -260 193 C-260 193.66 -260 194.32 -260 195 C-258.28668011 196.81067374 -258.28668011 196.81067374 -256.125 198.625 C-255.40570313 199.25664062 -254.68640625 199.88828125 -253.9453125 200.5390625 C-252.13893067 202.20017123 -252.13893067 202.20017123 -250 202 C-250 202.66 -250 203.32 -250 204 C-248.72126041 205.33252309 -248.72126041 205.33252309 -246.9375 206.75 C-243.38056295 209.76360386 -239.96424228 212.88975435 -236.57836914 216.09179688 C-220.68674936 231.33197519 -220.68674936 231.33197519 -199.75390625 235.23828125 C-197.76236294 235.25369665 -195.77082635 235.26999996 -193.77929688 235.28710938 C-190.66773562 235.30355967 -187.55666957 235.31248676 -184.44506836 235.30541992 C-181.42245549 235.30279094 -178.40132087 235.33097465 -175.37890625 235.36328125 C-174.45783585 235.35307449 -173.53676544 235.34286774 -172.58778381 235.33235168 C-166.17456763 235.42870831 -161.99241464 236.93856057 -157 241 C-151.93194649 246.33479317 -150.79957692 250.95706991 -150.5390625 258.109375 C-151.85364741 266.35338204 -157.0186475 273.71556852 -161.25 280.75 C-161.82339111 281.71212402 -162.39678223 282.67424805 -162.98754883 283.66552734 C-166.76806561 289.99458162 -170.5999584 296.29029758 -174.51171875 302.5390625 C-177.22434944 307.02451481 -178.53175861 309.59054873 -177.66796875 315.02734375 C-176.40723366 318.75056726 -174.34036257 319.98317732 -171 322 C-165.94553877 322.59087364 -162.43402544 321.13427326 -158.0625 318.8125 C-157.38429199 318.46300293 -156.70608398 318.11350586 -156.00732422 317.75341797 C-146.80117678 312.94692171 -137.80862283 307.73698571 -128.79052734 302.58984375 C-118.59990206 296.7839512 -108.38540963 291.13516119 -97.859375 285.95703125 C-90.0852075 282.06787328 -82.5128823 277.77580989 -74.89648438 273.58935547 C-71.11268499 271.51311356 -67.32148319 269.45060898 -63.53027344 267.38793945 C-56.08344778 263.33560554 -48.65151062 259.25952023 -41.25 255.125 C-33.98058675 251.06445103 -26.65233651 247.11909471 -19.3125 243.1875 C-9.70836778 238.04263028 -0.18447729 232.77533334 9.2644043 227.3503418 C13.44859291 224.9579959 17.63994977 222.64853944 21.96484375 220.51953125 C27.45812281 217.81383006 32.75202979 214.7953921 38.0625 211.75 C44.82448863 207.89774177 51.59852082 204.09679592 58.5 200.5 C65.44336565 196.87068816 72.29550334 193.08916816 79.125 189.25 C80.09759766 188.70666016 81.07019531 188.16332031 82.07226562 187.60351562 C91.10158616 182.87640063 91.10158616 182.87640063 98.4375 176.0625 C99.39235159 172.5613775 99.5102839 169.42108734 98.27587891 165.98339844 C96.63247141 163.42866394 95.03847911 162.63352132 92.3359375 161.265625 C91.3871875 160.77835938 90.4384375 160.29109375 89.4609375 159.7890625 C88.44257813 159.28117188 87.42421875 158.77328125 86.375 158.25 C85.32828125 157.71632812 84.2815625 157.18265625 83.203125 156.6328125 C80.14166065 155.07575323 77.07268322 153.53477976 74 152 C72.87126465 151.43442383 72.87126465 151.43442383 71.71972656 150.85742188 C69.19456751 149.59298653 66.6681404 148.33122314 64.13793945 147.0769043 C50.58985095 140.343279 37.23425302 133.21297269 23.88598633 126.09326172 C20.61926107 124.35797598 17.34065488 122.66032616 14.01953125 121.03125 C13.38345947 120.71905518 12.7473877 120.40686035 12.09204102 120.08520508 C10.38229537 119.25197317 8.66789363 118.42831389 6.953125 117.60546875 C0.56198932 114.13092276 -3.45911753 110.09636172 -5.59634399 103.02763367 C-7.20049116 94.96972605 -5.25568416 86.97134763 -3.6640625 79.07421875 C-3.42464935 77.8502388 -3.18523621 76.62625885 -2.93856812 75.3651886 C-2.30415569 72.12838605 -1.66269953 68.89309254 -1.01739502 65.65844727 C-0.11409341 61.12128509 0.77571938 56.58145358 1.66714478 52.04194641 C2.1408271 49.63385206 2.61704473 47.22625446 3.09628296 44.81925964 C3.53270263 42.61566286 3.96174284 40.41058854 4.38250732 38.20394897 C4.80256132 36.0244388 5.24658668 33.84944191 5.71173096 31.67910767 C5.92239197 30.62331512 6.13305298 29.56752258 6.35009766 28.47973633 C6.54705231 27.5442244 6.74400696 26.60871246 6.94692993 25.64485168 C7.01511608 22.24666013 5.99248744 20.70306246 4 18 C1.88602903 16.13437511 1.88602903 16.13437511 -0.5625 14.5625 C-1.46097656 13.96050781 -2.35945313 13.35851562 -3.28515625 12.73828125 C-6.47042791 10.69879076 -9.68278683 8.72703353 -12.94921875 6.8203125 C-15.47987693 5.31034232 -17.97001567 3.75955183 -20.45703125 2.1796875 C-21.25496094 1.67791992 -22.05289062 1.17615234 -22.875 0.65917969 C-24.47808999 -0.34981646 -26.07594453 -1.3671875 -27.66796875 -2.39355469 C-28.41304688 -2.85922852 -29.158125 -3.32490234 -29.92578125 -3.8046875 C-30.59005127 -4.22733887 -31.25432129 -4.64999023 -31.9387207 -5.08544922 C-36.40177459 -7.06562213 -39.65462147 -5.97588894 -43.6875 -3.625 Z " fill="#0A0809" transform="translate(346,92)"/>
<path d="M0 0 C0.66 0.33 1.32 0.66 2 1 C1.01 1.99 0.02 2.98 -1 4 C-1.66 3.67 -2.32 3.34 -3 3 C-3.79953138 6.28696233 -4.09658936 7.71023192 -3 11 C1.14093698 11.20970559 1.14093698 11.20970559 5 10 C5.66 10.66 6.32 11.32 7 12 C5.37554381 12.98006859 3.75041739 13.95902636 2.125 14.9375 C1.22007812 15.48277344 0.31515625 16.02804688 -0.6171875 16.58984375 C-2.05201636 17.43898017 -3.50875448 18.25437724 -5 19 C-5 18.34 -5 17.68 -5 17 C-6.60049704 16.60963487 -8.20562371 16.23821381 -9.8125 15.875 C-10.70582031 15.66617188 -11.59914063 15.45734375 -12.51953125 15.2421875 C-15.25246634 14.71119478 -15.25246634 14.71119478 -18 17 C-15.62926483 9.78744591 -9.40275 5.27361765 -3.0625 1.4375 C-2.051875 0.963125 -1.04125 0.48875 0 0 Z " fill="#120E0F" transform="translate(280,86)"/>
<path d="M0 0 C0 3 0 3 -2.1875 5.48046875 C-3.115625 6.37378906 -4.04375 7.26710937 -5 8.1875 C-5.928125 9.08855469 -6.85625 9.98960937 -7.8125 10.91796875 C-8.534375 11.60503906 -9.25625 12.29210937 -10 13 C-10.66 12.67 -11.32 12.34 -12 12 C-11.42415568 9.61435923 -10.77772405 7.33317216 -10 5 C-8.68 5 -7.36 5 -6 5 C-5.7525 4.360625 -5.505 3.72125 -5.25 3.0625 C-4 1 -4 1 -1.875 0.25 C-1.25625 0.1675 -0.6375 0.085 0 0 Z " fill="#110F12" transform="translate(255,244)"/>
<path d="M0 0 C0.8971875 0.5259375 0.8971875 0.5259375 1.8125 1.0625 C0.18804381 2.04256859 -1.43708261 3.02152636 -3.0625 4 C-3.96742188 4.54527344 -4.87234375 5.09054688 -5.8046875 5.65234375 C-7.23951636 6.50148017 -8.69625448 7.31687724 -10.1875 8.0625 C-10.1875 7.4025 -10.1875 6.7425 -10.1875 6.0625 C-10.8475 5.7325 -11.5075 5.4025 -12.1875 5.0625 C-11.5 3.125 -11.5 3.125 -10.1875 1.0625 C-7.75 0.375 -7.75 0.375 -5.1875 0.0625 C-2.1875 -0.9375 -2.1875 -0.9375 0 0 Z " fill="#0F0D0F" transform="translate(285.1875,96.9375)"/>
<path d="M0 0 C-0.598125 0.268125 -1.19625 0.53625 -1.8125 0.8125 C-4.06068011 1.83363765 -4.06068011 1.83363765 -5.25 3.6875 C-7.51162907 5.3837218 -8.43583577 5.0356895 -11.1875 4.6875 C-12.445625 4.460625 -13.70375 4.23375 -15 4 C-10.54156022 -1.20151308 -6.33060394 -2.86384464 0 0 Z " fill="#161215" transform="translate(439,278)"/>
<path d="M0 0 C0.66 0.99 1.32 1.98 2 3 C1.05128129 4.42307807 0.10183223 5.8456754 -0.8515625 7.265625 C-1.9682787 8.95209437 -3.04728931 10.66334184 -4.125 12.375 C-4.74375 13.24125 -5.3625 14.1075 -6 15 C-6.66 15 -7.32 15 -8 15 C-6.62712658 11.30123909 -4.93644547 8.0485524 -2.875 4.6875 C-2.33617187 3.80449219 -1.79734375 2.92148437 -1.2421875 2.01171875 C-0.83226562 1.34785156 -0.42234375 0.68398438 0 0 Z " fill="#201D1F" transform="translate(173,367)"/>
<path d="M0 0 C0.33 0 0.66 0 1 0 C1.33 1.98 1.66 3.96 2 6 C2.99 6 3.98 6 5 6 C4.05066101 9.35433109 3.10251165 12.69246505 2 16 C1.34 15.67 0.68 15.34 0 15 C0 10.05 0 5.1 0 0 Z " fill="#2B2627" transform="translate(264,170)"/>
<path d="M0 0 C0.66 0.33 1.32 0.66 2 1 C1.01 1.33 0.02 1.66 -1 2 C-0.67 2.99 -0.34 3.98 0 5 C-3.4019487 7.09350689 -6.05272412 7.17942163 -10 7 C-7.20283196 3.70921407 -3.80471422 1.93694542 0 0 Z " fill="#1B181A" transform="translate(308,344)"/>
<path d="M0 0 C0.66 0.33 1.32 0.66 2 1 C1 2 0 3 -1 4 C-1.45375 4.5775 -1.9075 5.155 -2.375 5.75 C-4 7 -4 7 -6.6875 6.6875 C-7.450625 6.460625 -8.21375 6.23375 -9 6 C-6.45368965 3.02930459 -3.57769851 1.5224249 0 0 Z " fill="#1E1C21" transform="translate(224,390)"/>
<path d="M0 0 C0.66 0.33 1.32 0.66 2 1 C0.1875 3 0.1875 3 -2 5 C-2.99 5 -3.98 5 -5 5 C-5.33 5.66 -5.66 6.32 -6 7 C-6.99 6.34 -7.98 5.68 -9 5 C-7.54735962 4.1361871 -6.0876837 3.28419546 -4.625 2.4375 C-3.40683594 1.72400391 -3.40683594 1.72400391 -2.1640625 0.99609375 C-1.44992187 0.66738281 -0.73578125 0.33867187 0 0 Z " fill="#1B1718" transform="translate(270,365)"/>
<path d="M0 0 C2.76276177 0.52268466 5.3260876 1.10869587 8 2 C8.33 3.65 8.66 5.3 9 7 C5.18315774 5.44499019 2.80804268 2.96404505 0 0 Z " fill="#1B191C" transform="translate(95,241)"/>
<path d="M0 0 C0.99 0.33 1.98 0.66 3 1 C2.34 2.65 1.68 4.3 1 6 C-0.32 5.67 -1.64 5.34 -3 5 C-1.125 1.125 -1.125 1.125 0 0 Z " fill="#1C171A" transform="translate(248,234)"/>
<path d="M0 0 C1.9451 2.91765 2.45276317 4.62537285 3 8 C2.67 7.34 2.34 6.68 2 6 C0.68 6.33 -0.64 6.66 -2 7 C-1.42415568 4.61435923 -0.77772405 2.33317216 0 0 Z " fill="#20181B" transform="translate(125,186)"/>
<path d="M0 0 C0 0.66 0 1.32 0 2 C-5.17578125 5.22265625 -5.17578125 5.22265625 -7 6 C-7.99 5.67 -8.98 5.34 -10 5 C-8.71186658 4.16121545 -7.41936744 3.32913217 -6.125 2.5 C-5.40570313 2.0359375 -4.68640625 1.571875 -3.9453125 1.09375 C-2 0 -2 0 0 0 Z " fill="#2A2526" transform="translate(128,157)"/>
<path d="M0 0 C2.125 0.9375 2.125 0.9375 4 2 C-1.2734375 5.22265625 -1.2734375 5.22265625 -3 6 C-3.66 5.67 -4.32 5.34 -5 5 C-2.25 1.125 -2.25 1.125 0 0 Z " fill="#272427" transform="translate(283,96)"/>
<path d="M0 0 C1.98 0.66 3.96 1.32 6 2 C5.67 3.65 5.34 5.3 5 7 C2.47411298 4.63707344 1.11179163 3.33537489 0 0 Z " fill="#171415" transform="translate(341,198)"/>
<path d="M0 0 C1 2 1 2 1 6 C0.38125 6.144375 -0.2375 6.28875 -0.875 6.4375 C-3.03258322 6.93152225 -3.03258322 6.93152225 -5 8 C-3.8141763 4.62496331 -2.72426311 2.35277269 0 0 Z " fill="#241B1E" transform="translate(267,95)"/>
<path d="M0 0 C1.32 0.66 2.64 1.32 4 2 C1.625 3.5625 1.625 3.5625 -1 5 C-1.66 4.67 -2.32 4.34 -3 4 C-2.01 2.68 -1.02 1.36 0 0 Z " fill="#1E181F" transform="translate(212,408)"/>
</svg>
