<?xml version="1.0" encoding="UTF-8"?>
<svg version="1.1" xmlns="http://www.w3.org/2000/svg" width="500" height="500">
<path d="M0 0 C5.38273179 5.041791 9.04374837 10.84848142 12.78515625 17.15625 C13.6787469 18.63988984 14.57335859 20.12291499 15.46875 21.60546875 C19.07803377 27.59261951 22.66071954 33.59559443 26.24267578 39.59912109 C29.74143547 45.46083562 33.25640808 51.31253939 36.78515625 57.15625 C37.45756348 58.27128906 38.1299707 59.38632813 38.82275391 60.53515625 C40.63106264 63.53059895 42.44758302 66.5209473 44.2689209 69.50848389 C44.98397868 70.68359157 45.69681649 71.86005319 46.40734863 73.03790283 C47.40340313 74.6878714 48.40855344 76.33233855 49.4140625 77.9765625 C49.9922876 78.92805176 50.5705127 79.87954102 51.16625977 80.85986328 C53.01446027 83.48151521 54.60339194 84.91898458 57.80859375 85.5625 C64.78875964 85.84077904 69.72980082 83.71217211 75.90234375 80.56640625 C82.62177851 77.27952827 90.26061664 77.08021336 97.51171875 78.8046875 C107.65283128 82.47809359 112.99473342 88.54208659 117.65625 98.09375 C119.83952191 104.01653609 119.90922093 109.93527331 119.69921875 116.17578125 C119.67829666 116.94032623 119.65737457 117.70487122 119.63581848 118.49258423 C119.56624162 120.98483781 119.488276 123.47675087 119.41015625 125.96875 C119.36023272 127.698634 119.31084125 129.42853342 119.26196289 131.15844727 C119.13488452 135.60819651 119.00085216 140.05770795 118.86517334 144.50720215 C118.73648092 148.76769665 118.61446765 153.02837997 118.4921875 157.2890625 C118.26294061 165.24499001 118.02656337 173.20068214 117.78515625 181.15625 C122.25472072 179.75567391 125.20909827 178.33207446 128.78515625 175.28125 C129.73648437 174.476875 130.6878125 173.6725 131.66796875 172.84375 C132.70744936 171.94840185 133.74649582 171.05254947 134.78515625 170.15625 C135.90711313 169.1974028 137.02952141 168.23908358 138.15234375 167.28125 C140.52111168 165.25742891 142.885055 163.22814374 145.24609375 161.1953125 C149.10604817 157.87503494 152.99448551 154.58913446 156.88574219 151.30566406 C160.31101517 148.41214965 163.71855485 145.49896798 167.1171875 142.57421875 C172.66293209 137.80173702 178.26040509 133.11163624 183.94140625 128.5 C187.26202435 125.76322684 190.52553185 122.96511743 193.78515625 120.15625 C198.8347475 115.80721171 203.93126557 111.5282177 209.109375 107.33203125 C211.01833658 105.77978073 212.91555038 104.21303627 214.8046875 102.63671875 C215.78824219 101.81816406 216.77179688 100.99960938 217.78515625 100.15625 C218.67203125 99.41375 219.55890625 98.67125 220.47265625 97.90625 C225.08520659 94.41567136 230.22041655 94.52251209 235.78515625 95.15625 C239.16015625 96.90625 239.16015625 96.90625 241.78515625 99.15625 C242.89890625 99.9915625 242.89890625 99.9915625 244.03515625 100.84375 C246.6414257 104.28774892 247.77891997 107.83450638 247.78515625 112.15625 C246.40371764 119.5004736 242.96497161 123.79244124 237.59765625 128.78125 C236.57792725 129.76315308 236.57792725 129.76315308 235.53759766 130.76489258 C231.73817399 134.40088549 227.87940001 137.96704169 223.86328125 141.36328125 C220.98097032 143.85008711 218.20044776 146.442093 215.41015625 149.03125 C210.77184716 153.33067205 206.09767822 157.58477267 201.38671875 161.8046875 C198.28806359 164.605574 195.22364443 167.44202632 192.16015625 170.28125 C188.78196912 173.41156785 185.40098441 176.52610228 181.91015625 179.53125 C177.24876364 183.55789979 172.7917962 187.80469491 168.30029297 192.01831055 C164.36723806 195.70102607 160.39963607 199.3254215 156.30078125 202.82421875 C154.72754039 204.16469122 154.72754039 204.16469122 153.20703125 205.83203125 C151.78515625 207.15625 151.78515625 207.15625 149.78515625 207.15625 C149.78515625 207.81625 149.78515625 208.47625 149.78515625 209.15625 C148.421875 210.53125 148.421875 210.53125 146.47265625 212.15625 C143.01498076 215.09374422 139.63270884 218.09349616 136.28515625 221.15625 C133.18783658 223.98202384 130.08111475 226.78843779 126.91015625 229.53125 C121.64690594 234.10705537 116.56312233 238.87926277 111.44775391 243.61865234 C107.40520165 247.35727116 103.33910321 251.07032034 99.27783203 254.78857422 C97.75700749 256.18204152 96.23768301 257.57712751 94.71875 258.97265625 C90.0928139 263.2213859 85.45906222 267.46018745 80.78515625 271.65625 C77.16353255 274.90820238 73.5612222 278.18039709 69.97265625 281.46875 C69.47540039 281.92258057 68.97814453 282.37641113 68.46582031 282.84399414 C65.7518372 285.3268985 63.06755461 287.83527713 60.4140625 290.3828125 C47.78364321 302.44218043 47.78364321 302.44218043 39.28515625 303.65625 C33.75164109 302.86574783 29.78923758 301.36289439 25.96875 297.15625 C21.87567878 291.58894059 18.8738762 285.54242378 15.87109375 279.33984375 C13.31574836 274.13007866 10.51212636 269.05580951 7.72265625 263.96875 C7.22805908 263.06672852 6.73346191 262.16470703 6.22387695 261.23535156 C5.23980663 259.44293193 4.24223246 257.65786143 3.23144531 255.88037109 C1.78515625 253.15625 1.78515625 253.15625 0.62792969 250.21728516 C-1.37547862 245.50761535 -2.8986727 242.84153555 -7.52856445 240.4309082 C-11.54836065 238.92657046 -15.67409422 237.91500927 -19.83984375 236.90625 C-21.27316014 236.51808717 -22.70546967 236.12618625 -24.13671875 235.73046875 C-31.65622997 233.27273132 -31.65622997 233.27273132 -39.21484375 234.15625 C-41.03655717 235.47827432 -41.03655717 235.47827432 -42.71484375 237.09375 C-46.97269202 241.03225965 -50.21998582 242.66024526 -56.19921875 242.4609375 C-61.18543421 241.70720726 -64.12041513 238.47667908 -67.01953125 234.64453125 C-70.49007232 229.93412949 -73.36175933 224.94438139 -76.21484375 219.84375 C-76.70984375 218.97041016 -77.20484375 218.09707031 -77.71484375 217.19726562 C-82.94502942 207.94228864 -87.98986041 198.58803199 -93.0078125 189.21679688 C-98.87402358 178.26966842 -104.85096091 167.39409202 -110.9519043 156.57617188 C-115.24331238 148.94646777 -119.40407088 141.25291425 -123.52734375 133.53125 C-127.6061769 125.89411836 -131.78140296 118.36773635 -136.31469727 110.99169922 C-138.37776887 107.61664377 -140.2409075 104.21567131 -141.96484375 100.65625 C-144.89378416 94.61072118 -148.2026472 88.80448231 -151.52734375 82.96875 C-153.7600124 79.03322549 -155.98920142 75.09575231 -158.21484375 71.15625 C-158.69550293 70.30611328 -159.17616211 69.45597656 -159.67138672 68.58007812 C-160.95098591 66.30092203 -162.21125056 64.01228817 -163.46484375 61.71875 C-163.83520752 61.06430908 -164.20557129 60.40986816 -164.5871582 59.7355957 C-167.46133576 54.40689394 -168.68204109 49.52197774 -167.83203125 43.3984375 C-167.46464844 42.22667969 -167.46464844 42.22667969 -167.08984375 41.03125 C-166.86039063 40.24492187 -166.6309375 39.45859375 -166.39453125 38.6484375 C-163.39653865 32.31492995 -159.08646442 29.04405177 -153.08984375 25.84375 C-152.15978516 25.32458008 -152.15978516 25.32458008 -151.2109375 24.79492188 C-144.95192482 21.34236972 -139.75406515 20.09158317 -132.75 21.734375 C-120.71806238 25.81299792 -114.93755386 37.29225915 -108.36816406 47.39941406 C-105.75036209 51.38707346 -102.97024234 55.26318087 -100.21484375 59.15625 C-98.51203845 61.58085333 -96.81263388 64.00774464 -95.1171875 66.4375 C-93.69956524 68.46350635 -92.27439272 70.48323494 -90.84375 72.5 C-90.02979999 73.65614587 -89.2159964 74.81239484 -88.40234375 75.96875 C-87.27892578 77.55623047 -87.27892578 77.55623047 -86.1328125 79.17578125 C-84.43805222 81.80939041 -83.24365638 84.21134188 -82.21484375 87.15625 C-81.55484375 87.15625 -80.89484375 87.15625 -80.21484375 87.15625 C-78.95479836 88.83328883 -77.78354853 90.57724233 -76.65234375 92.34375 C-75.935625 93.44589844 -75.21890625 94.54804688 -74.48046875 95.68359375 C-74.10599609 96.26093262 -73.73152344 96.83827148 -73.34570312 97.43310547 C-71.57943274 100.12445615 -69.74100535 102.76400069 -67.90234375 105.40625 C-67.13787049 106.50640596 -66.37355122 107.60666894 -65.609375 108.70703125 C-65.21830566 109.26986816 -64.82723633 109.83270508 -64.42431641 110.41259766 C-57.84578007 119.89663208 -51.34008277 129.43097738 -44.83984375 138.96875 C-44.20602783 139.89848633 -43.57221191 140.82822266 -42.91918945 141.78613281 C-37.86806067 149.19608284 -37.86806067 149.19608284 -35.40576172 152.81542969 C-33.6977899 155.32589675 -31.98817703 157.83523221 -30.27734375 160.34375 C-29.7455249 161.12395508 -29.21370605 161.90416016 -28.66577148 162.70800781 C-25.06347095 167.9718192 -21.35688865 173.13552673 -17.5078125 178.22265625 C-16.21484375 180.15625 -16.21484375 180.15625 -16.21484375 182.15625 C-11.43483179 181.968272 -9.37580428 179.70536341 -6.30078125 176.38476562 C-5.73617187 175.75248047 -5.1715625 175.12019531 -4.58984375 174.46875 C-4.0175 173.85580078 -3.44515625 173.24285156 -2.85546875 172.61132812 C1.22677858 168.13509646 5.26829911 163.48629422 5.09765625 157.09375 C4.57358151 150.49040831 1.95646775 146.78003404 -2.33984375 141.90625 C-2.85828857 141.30925293 -3.3767334 140.71225586 -3.91088867 140.09716797 C-8.96794666 134.32846366 -14.22348344 128.74475232 -19.51806641 123.19433594 C-23.30385462 119.22226746 -26.97839362 115.18155163 -30.57348633 111.03613281 C-32.96421247 108.2979815 -35.42781675 105.63103211 -37.90234375 102.96875 C-38.94663595 101.84116562 -39.99090615 100.71356086 -41.03515625 99.5859375 C-41.56141602 99.01842773 -42.08767578 98.45091797 -42.62988281 97.86621094 C-45.18267807 95.11208617 -47.73017573 92.35307843 -50.27734375 89.59375 C-51.02310669 88.78611206 -51.02310669 88.78611206 -51.78393555 87.9621582 C-55.55297819 83.87846534 -59.31019055 79.78406478 -63.06176758 75.68432617 C-65.47528868 73.04835272 -67.8951745 70.41855721 -70.32421875 67.796875 C-75.07536546 62.66852452 -79.80186102 57.53483393 -84.375 52.24609375 C-86.78154566 49.51254401 -89.24789324 46.83512646 -91.71484375 44.15625 C-95.33213983 40.22736987 -98.90315698 36.26744361 -102.390625 32.22265625 C-103.82042278 30.60303521 -105.28314109 29.01246621 -106.7578125 27.43359375 C-107.65113281 26.47582031 -108.54445312 25.51804688 -109.46484375 24.53125 C-110.295 23.65210938 -111.12515625 22.77296875 -111.98046875 21.8671875 C-115.8461197 17.17704457 -117.77168773 13.134087 -117.49609375 7.10546875 C-116.81964944 2.41733386 -114.75245905 -0.3061347 -111.46484375 -3.59375 C-104.39408875 -8.48888808 -96.28415428 -8.45996502 -87.93359375 -9.1328125 C-86.64731079 -9.24096283 -85.36102783 -9.34911316 -84.0357666 -9.46054077 C-81.31618836 -9.68850437 -78.59626163 -9.91149584 -75.87597656 -10.13085938 C-72.43425802 -10.40873641 -68.99364556 -10.69827163 -65.55321503 -10.9916172 C-62.22218169 -11.27407067 -58.8903701 -11.54676164 -55.55859375 -11.8203125 C-54.34554565 -11.92340729 -53.13249756 -12.02650208 -51.88269043 -12.13272095 C-31.95219138 -13.71779938 -15.95357552 -13.28057786 0 0 Z M-69.0222168 2.18261719 C-72.50138913 2.47837213 -75.98159625 2.75918586 -79.46230221 3.03623009 C-82.80631822 3.30471311 -86.14916397 3.58661551 -89.4921875 3.8671875 C-91.36534889 4.01575699 -91.36534889 4.01575699 -93.27635193 4.16732788 C-94.42257523 4.26728058 -95.56879852 4.36723328 -96.74975586 4.47021484 C-97.75993271 4.55459808 -98.77010956 4.63898132 -99.81089783 4.72592163 C-102.39106102 4.95150419 -102.39106102 4.95150419 -104.21484375 7.15625 C-104.28177755 11.81651552 -101.6374829 14.24895223 -98.60668945 17.4206543 C-97.98238037 18.05527588 -97.35807129 18.68989746 -96.71484375 19.34375 C-95.42641544 20.68685962 -94.13865455 22.0306098 -92.8515625 23.375 C-92.22427246 24.0246875 -91.59698242 24.674375 -90.95068359 25.34375 C-88.75858757 27.63265589 -86.63590565 29.97785905 -84.52734375 32.34375 C-81.28334487 35.97293614 -78.0087711 39.57239815 -74.71484375 43.15625 C-70.59137997 47.64516531 -66.49443734 52.15663115 -62.42578125 56.6953125 C-60.8535031 58.44537475 -59.27467517 60.18956222 -57.69140625 61.9296875 C-56.87414062 62.82945312 -56.056875 63.72921875 -55.21484375 64.65625 C-54.47234375 65.4709375 -53.72984375 66.285625 -52.96484375 67.125 C-51.21484375 69.15625 -51.21484375 69.15625 -50.21484375 71.15625 C-49.55484375 71.15625 -48.89484375 71.15625 -48.21484375 71.15625 C-47.95598389 71.73729492 -47.69712402 72.31833984 -47.43041992 72.91699219 C-46.12000199 75.33096152 -44.66637493 77.00622121 -42.765625 78.984375 C-42.08177734 79.70238281 -41.39792969 80.42039062 -40.69335938 81.16015625 C-39.97857422 81.90136719 -39.26378906 82.64257812 -38.52734375 83.40625 C-33.84367877 88.29393005 -29.23533679 93.21198432 -24.80297852 98.32958984 C-22.58916844 100.87589684 -20.31187479 103.36087208 -18.02734375 105.84375 C-17.33415039 106.59785156 -17.33415039 106.59785156 -16.62695312 107.3671875 C-13.6627613 110.59000009 -10.69254019 113.80726079 -7.72167969 117.02392578 C-6.71772126 118.11149319 -5.71446479 119.19970902 -4.71191406 120.28857422 C-2.2189194 122.99486023 0.28451435 125.68962339 2.8125 128.36328125 C11.20878041 137.28632715 16.9363752 144.52697597 18.16015625 156.96875 C17.58651504 170.39716926 8.44571038 179.71493041 -0.70703125 188.56640625 C-4.80450119 192.2211093 -7.29777038 194.30567666 -12.90234375 194.46875 C-13.73121094 194.50613281 -14.56007812 194.54351562 -15.4140625 194.58203125 C-21.51763901 193.65415142 -25.01757209 190.76806106 -28.57421875 185.953125 C-29.71899979 184.28071581 -30.84856076 182.59781389 -31.96484375 180.90625 C-32.57408691 180.00946533 -33.18333008 179.11268066 -33.81103516 178.1887207 C-35.04756805 176.36694738 -36.27827623 174.54120598 -37.50292969 172.71142578 C-39.41370815 169.85942815 -41.35494715 167.02992127 -43.30517578 164.20483398 C-44.6230312 162.29567172 -45.93468543 160.38234527 -47.24609375 158.46875 C-50.83567351 153.24303582 -54.46496056 148.04500406 -58.08984375 142.84375 C-63.03926 135.74074431 -67.96284997 128.62167421 -72.83984375 121.46875 C-79.54587245 111.63765197 -86.37451767 101.89418802 -93.21484375 92.15625 C-100.20133993 82.21022317 -107.17110271 72.25519262 -114.02734375 62.21875 C-114.56431885 61.43346924 -115.10129395 60.64818848 -115.65454102 59.83911133 C-118.06196944 56.31632664 -120.46356482 52.78989213 -122.8515625 49.25390625 C-123.63921422 48.0962802 -124.42696704 46.93872293 -125.21484375 45.78125 C-125.87484375 44.80414063 -126.53484375 43.82703125 -127.21484375 42.8203125 C-131.86729296 36.58084203 -131.86729296 36.58084203 -138.77734375 33.78125 C-144.30043537 34.38376909 -148.95583297 37.02190869 -152.984375 40.828125 C-154.79749517 44.25866348 -154.80100005 47.41092832 -154.21484375 51.15625 C-153.09666768 53.88667995 -151.98874384 56.19358226 -150.52734375 58.71875 C-150.12870117 59.43925537 -149.73005859 60.15976074 -149.31933594 60.90209961 C-147.96903449 63.33064595 -146.5934079 65.74364603 -145.21484375 68.15625 C-144.20231913 69.94746137 -143.19062743 71.73914377 -142.1796875 73.53125 C-140.55631931 76.40572524 -138.93068103 79.27880252 -137.29833984 82.14819336 C-132.76150713 90.1338846 -128.38434742 98.19892268 -124.03588867 106.28833008 C-119.89936956 113.95735497 -115.59689527 121.52034248 -111.24194336 129.06689453 C-108.26064884 134.25613088 -105.50325664 139.49556303 -102.89453125 144.8828125 C-99.09108662 152.29510693 -94.81404238 159.46086599 -90.6484375 166.67382812 C-84.81025591 176.7832679 -79.07188062 186.93690309 -73.5703125 197.234375 C-69.25820618 205.29402292 -64.776782 213.23634896 -60.21484375 221.15625 C-59.88919434 221.7946582 -59.56354492 222.43306641 -59.22802734 223.09082031 C-57.34049652 226.76139723 -57.34049652 226.76139723 -54.22265625 229.3359375 C-51.17430769 229.0631281 -50.11324353 227.5046817 -48.08984375 225.28125 C-43.42316976 220.22715401 -43.42316976 220.22715401 -38.62426758 219.94555664 C-34.01804821 220.00939958 -30.02349439 221.12218934 -25.6640625 222.52734375 C-24.88343948 222.76912857 -24.10281647 223.01091339 -23.29853821 223.26002502 C-20.8297046 224.0274076 -18.36611764 224.81029355 -15.90234375 225.59375 C-14.2301389 226.11626339 -12.55761516 226.63775741 -10.88476562 227.15820312 C4.70619321 232.02079817 4.70619321 232.02079817 5.80249023 233.90136719 C6.28890991 235.01753418 6.28890991 235.01753418 6.78515625 236.15625 C13.92775349 249.59246769 21.23269414 262.94591697 28.78515625 276.15625 C29.12305176 276.74954102 29.46094727 277.34283203 29.80908203 277.95410156 C33.27228077 284.44150576 33.27228077 284.44150576 37.78515625 290.15625 C41.25133068 289.83331449 43.09488318 288.27782577 45.59765625 285.96875 C48.83595373 283.01600595 52.13783787 280.18587324 55.53515625 277.41796875 C57.01975626 276.21546273 57.01975626 276.21546273 56.78515625 274.15625 C57.58179688 273.83720703 57.58179688 273.83720703 58.39453125 273.51171875 C61.70663608 271.63377696 64.29451285 269.07585857 67.03515625 266.46875 C68.20630113 265.37031478 69.37817248 264.27265359 70.55078125 263.17578125 C71.11216797 262.64936035 71.67355469 262.12293945 72.25195312 261.58056641 C74.06254474 259.8985614 75.91253591 258.26878418 77.78515625 256.65625 C81.89953699 253.09739746 85.87773663 249.39653592 89.8671875 245.69921875 C93.1503551 242.65868709 96.45191971 239.6420482 99.78515625 236.65625 C103.65178297 233.19135073 107.47525264 229.68316063 111.28515625 226.15625 C116.74138251 221.10671873 122.24619409 216.11502627 127.78515625 211.15625 C136.30498183 203.51731107 144.76214444 195.81194178 153.15625 188.03515625 C162.74619499 179.15301749 162.74619499 179.15301749 166.66015625 175.78125 C171.32979678 171.74747542 175.79396009 167.49244647 180.29418945 163.2722168 C184.01281091 159.79126032 187.77055048 156.37997006 191.6328125 153.05859375 C194.73693822 150.31501983 197.75635443 147.48247226 200.78515625 144.65625 C205.0390291 140.68778967 209.31585128 136.7677198 213.72265625 132.96875 C217.0011336 130.08766384 220.19961376 127.11836863 223.39892578 124.14990234 C225.89824012 121.8416184 228.43037697 119.63553399 231.09765625 117.52734375 C234.06079475 115.35598907 234.06079475 115.35598907 234.66015625 111.84375 C234.70140625 110.956875 234.74265625 110.07 234.78515625 109.15625 C232.5106437 107.89577573 232.5106437 107.89577573 229.78515625 107.15625 C227.69855963 108.01723619 227.69855963 108.01723619 225.84765625 109.78125 C224.68556641 110.76351562 224.68556641 110.76351562 223.5 111.765625 C222.60410156 112.55453125 221.70820313 113.3434375 220.78515625 114.15625 C219.68381453 115.10073701 218.58085622 116.04334117 217.4765625 116.984375 C215.06365256 119.04317302 212.65871883 121.11081557 210.2578125 123.18359375 C207.3275191 125.70430205 204.35253341 128.16208339 201.34765625 130.59375 C196.29661557 134.69540271 191.38387229 138.94216011 186.47729492 143.21411133 C180.82580058 148.13222204 175.11644829 152.97816656 169.38671875 157.8046875 C167.74586889 159.1894047 166.1087682 160.57843891 164.47265625 161.96875 C158.5949192 166.96097834 152.67868355 171.89371025 146.6875 176.75 C144.48359217 178.5771968 142.31676905 180.42655535 140.1640625 182.3125 C139.54136475 182.85592041 138.91866699 183.39934082 138.27709961 183.95922852 C137.06061018 185.02427321 135.84891551 186.09482734 134.64282227 187.17163086 C129.10181511 192.01611816 124.6236777 193.65898906 117.21875 193.4609375 C113.44105368 192.9879675 111.52821808 191.76868983 108.78515625 189.15625 C104.94551561 184.00304809 104.57344063 180.16325321 104.62109375 173.78515625 C104.62657227 173.05130707 104.63205078 172.31745789 104.63769531 171.56137085 C104.75699916 161.45991943 105.29101257 151.36974037 105.78515625 141.28125 C105.92966685 138.29890044 106.07292852 135.31650902 106.21313477 132.33395386 C106.29955357 130.49831881 106.38837886 128.66279461 106.48022461 126.8274231 C107.8939721 110.13378596 107.8939721 110.13378596 101.78515625 95.15625 C96.81503085 91.57775971 91.99474127 89.31851739 85.78515625 90.15625 C80.2518204 92.00633148 75.03803156 94.64195238 69.78515625 97.15625 C64.0109131 99.08099772 56.63436653 99.24046574 50.91015625 96.96875 C44.58337153 93.29921486 40.95979197 89.47645377 37.47265625 83.09375 C36.61458606 81.58055002 35.75368697 80.0689522 34.890625 78.55859375 C34.40899902 77.71280762 33.92737305 76.86702148 33.43115234 75.99560547 C30.50375442 70.94582234 27.44819577 65.97325338 24.40615845 60.99203491 C19.29842242 52.62746189 14.21716301 44.25108839 9.28515625 35.78125 C-3.50870702 13.26083131 -3.50870702 13.26083131 -25.21484375 0.15625 C-39.8051078 -0.74764713 -54.49738473 0.94687067 -69.0222168 2.18261719 Z " fill="#090708" transform="translate(210.21484375,104.84375)"/>
<path d="M0 0 C0 3 0 3 -1.42114258 4.66992188 C-2.07236084 5.26353516 -2.7235791 5.85714844 -3.39453125 6.46875 C-4.10287109 7.12230469 -4.81121094 7.77585937 -5.54101562 8.44921875 C-6.66540039 9.46435547 -6.66540039 9.46435547 -7.8125 10.5 C-9.27756469 11.84350911 -10.74241641 13.1872505 -12.20703125 14.53125 C-12.8616333 15.12486328 -13.51623535 15.71847656 -14.19067383 16.33007812 C-15.83703196 17.84958826 -17.42757093 19.40461374 -19 21 C-19.66 21.66 -20.32 22.32 -21 23 C-21 23.66 -21 24.32 -21 25 C-21.804375 25.07734375 -21.804375 25.07734375 -22.625 25.15625 C-26.13306562 26.40253647 -28.39413164 28.93928282 -31 31.5 C-37.24742268 37.63917526 -37.24742268 37.63917526 -41 38 C-39.8717446 36.8717446 -38.74312686 35.74385044 -37.61328125 34.6171875 C-36.4597124 33.46082551 -35.31190691 32.29870256 -34.16796875 31.1328125 C-30.39879076 27.31159457 -26.54763269 23.68668763 -22.4765625 20.19140625 C-18.35513861 16.54453117 -14.36671331 12.75354985 -10.36694336 8.97412109 C-7.01834491 5.82439328 -3.64615694 2.80956262 0 0 Z " fill="#1A161B" transform="translate(334,319)"/>
<path d="M0 0 C0.33 1.32 0.66 2.64 1 4 C0.01 4.495 0.01 4.495 -1 5 C-0.67 5.66 -0.34 6.32 0 7 C-2.31 8.98 -4.62 10.96 -7 13 C-7.66 12.67 -8.32 12.34 -9 12 C-8.34 11.01 -7.68 10.02 -7 9 C-7.99 9 -8.98 9 -10 9 C-6.7 6.03 -3.4 3.06 0 0 Z " fill="#120E13" transform="translate(394,264)"/>
<path d="M0 0 C0 3 0 3 -2.25 5.3125 C-3.1575 6.199375 -4.065 7.08625 -5 8 C-5.680625 9.0725 -6.36125 10.145 -7.0625 11.25 C-9 14 -9 14 -11.0625 14.875 C-12.70544499 14.98099645 -14.35363932 15 -16 15 C-10.72 10.05 -5.44 5.1 0 0 Z " fill="#191619" transform="translate(383,274)"/>
<path d="M0 0 C0.66 0.33 1.32 0.66 2 1 C-1.3618226 5.25171681 -4.74828319 8.6381774 -9 12 C-8.67 12.66 -8.34 13.32 -8 14 C-8.99 14 -9.98 14 -11 14 C-11 13.34 -11 12.68 -11 12 C-12.65 11.67 -14.3 11.34 -16 11 C-16 10.01 -16 9.02 -16 8 C-15.34 8.66 -14.68 9.32 -14 10 C-10.41109446 9.69216501 -8.46846261 7.93408843 -5.875 5.5625 C-5.19179688 4.94503906 -4.50859375 4.32757813 -3.8046875 3.69140625 C-2.51538621 2.48303513 -1.24949161 1.24949161 0 0 Z " fill="#1F1D21" transform="translate(262,384)"/>
<path d="M0 0 C2.04119788 1.61594832 4.04072937 3.2856382 6 5 C6 5.66 6 6.32 6 7 C4.25 7.75 4.25 7.75 2 8 C-0.25 6.0625 -0.25 6.0625 -2 4 C-1.34 2.68 -0.68 1.36 0 0 Z " fill="#100D10" transform="translate(134,160)"/>
<path d="M0 0 C0.9075 0.226875 1.815 0.45375 2.75 0.6875 C-2 5.5625 -2 5.5625 -4.25 6.6875 C-4.25 5.6975 -4.25 4.7075 -4.25 3.6875 C-5.24 3.3575 -6.23 3.0275 -7.25 2.6875 C-4.61280971 0.1517401 -3.74095095 -0.35970682 0 0 Z " fill="#0F0C0F" transform="translate(350.25,284.3125)"/>
<path d="M0 0 C0.33 0 0.66 0 1 0 C1.33 3.63 1.66 7.26 2 11 C4.97 11.495 4.97 11.495 8 12 C6.68 12.33 5.36 12.66 4 13 C4 13.66 4 14.32 4 15 C3.34 15 2.68 15 2 15 C1.67 15.66 1.34 16.32 1 17 C-0.18681726 13.43954823 -0.09689832 10.56191663 -0.0625 6.8125 C-0.05347656 5.54019531 -0.04445313 4.26789063 -0.03515625 2.95703125 C-0.02355469 1.98121094 -0.01195312 1.00539063 0 0 Z " fill="#1E1B1E" transform="translate(314,272)"/>
<path d="M0 0 C1.32 0.66 2.64 1.32 4 2 C1.42215154 4.64752004 -0.91648098 6.94432065 -4 9 C-4.33 8.34 -4.66 7.68 -5 7 C-4.34 7 -3.68 7 -3 7 C-3.33 6.01 -3.66 5.02 -4 4 C-2.68 3.67 -1.36 3.34 0 3 C0 2.01 0 1.02 0 0 Z " fill="#141012" transform="translate(428,245)"/>
<path d="M0 0 C0.99 0.33 1.98 0.66 3 1 C0.47111299 3.79983919 -1.19713015 5.50930712 -5 6 C-5.99 6 -6.98 6 -8 6 C-2.25 1.125 -2.25 1.125 0 0 Z " fill="#1A1819" transform="translate(104,98)"/>
<path d="M0 0 C2.89932357 2.39509338 3.50168276 4.31245243 4 8 C2.125 7.6875 2.125 7.6875 0 7 C-0.66 6.01 -1.32 5.02 -2 4 C-1.34 2.68 -0.68 1.36 0 0 Z " fill="#151416" transform="translate(147,321)"/>
<path d="M0 0 C0.33 0.99 0.66 1.98 1 3 C3.00016466 4.20882096 3.00016466 4.20882096 5 5 C4.67 5.99 4.34 6.98 4 8 C3.01 7.67 2.02 7.34 1 7 C-0.1875 3.9375 -0.1875 3.9375 -1 1 C-0.67 0.67 -0.34 0.34 0 0 Z M3 2 C3.99 2 4.98 2 6 2 C5.67 2.66 5.34 3.32 5 4 C4.34 3.34 3.68 2.68 3 2 Z " fill="#100D10" transform="translate(105,267)"/>
<path d="M0 0 C2.31 1.98 4.62 3.96 7 6 C6.67 6.66 6.34 7.32 6 8 C5.34 7.34 4.68 6.68 4 6 C3.01 6 2.02 6 1 6 C-0.0625 4.125 -0.0625 4.125 -1 2 C-0.67 1.34 -0.34 0.68 0 0 Z " fill="#181417" transform="translate(145,159)"/>
<path d="M0 0 C3.26460973 1.80412643 4.88929795 2.83394693 7 6 C6.34 6.66 5.68 7.32 5 8 C4.34 7.34 3.68 6.68 3 6 C2.01 6.495 2.01 6.495 1 7 C0.67 4.69 0.34 2.38 0 0 Z " fill="#100B0D" transform="translate(447,201)"/>
<path d="M0 0 C2.31 0.33 4.62 0.66 7 1 C7.33 2.65 7.66 4.3 8 6 C5 6 5 6 3.61328125 4.6875 C2.40885417 3.125 1.20442708 1.5625 0 0 Z " fill="#161316" transform="translate(152,185)"/>
<path d="M0 0 C0 3 0 3 -1.53125 4.60546875 C-2.1809375 5.12753906 -2.830625 5.64960938 -3.5 6.1875 C-4.1496875 6.71730469 -4.799375 7.24710937 -5.46875 7.79296875 C-5.9740625 8.19128906 -6.479375 8.58960938 -7 9 C-7.66 8.67 -8.32 8.34 -9 8 C-6.03 5.36 -3.06 2.72 0 0 Z " fill="#1E171F" transform="translate(334,319)"/>
<path d="M0 0 C0.66 0.33 1.32 0.66 2 1 C1.34 1.66 0.68 2.32 0 3 C0.3185177 5.10820797 0.3185177 5.10820797 1 7 C-0.32 7.33 -1.64 7.66 -3 8 C-2.25 2.25 -2.25 2.25 0 0 Z " fill="#171618" transform="translate(343,310)"/>
<path d="M0 0 C0.99 0.33 1.98 0.66 3 1 C2.67 3.31 2.34 5.62 2 8 C-0.50037734 5.82575883 -1.43628586 4.26954202 -2 1 C-1.34 0.67 -0.68 0.34 0 0 Z " fill="#0E0D10" transform="translate(113,280)"/>
<path d="M0 0 C0.66 0.33 1.32 0.66 2 1 C0.02 3.31 -1.96 5.62 -4 8 C-5.32 7.67 -6.64 7.34 -8 7 C-5.36 4.69 -2.72 2.38 0 0 Z " fill="#231F24" transform="translate(347,273)"/>
<path d="M0 0 C1.134375 0.020625 2.26875 0.04125 3.4375 0.0625 C2.7775 1.3825 2.1175 2.7025 1.4375 4.0625 C1.1075 3.4025 0.7775 2.7425 0.4375 2.0625 C-1.5425 2.3925 -3.5225 2.7225 -5.5625 3.0625 C-3.91100715 -0.24048571 -4.06508444 0.07131727 0 0 Z " fill="#110F11" transform="translate(220.5625,276.9375)"/>
<path d="M0 0 C0.598125 0.20625 1.19625 0.4125 1.8125 0.625 C1.4825 1.615 1.1525 2.605 0.8125 3.625 C-1.4975 3.955 -3.8075 4.285 -6.1875 4.625 C-5.03076352 1.15479057 -3.91311293 -0.67081936 0 0 Z " fill="#141314" transform="translate(443.1875,209.375)"/>
</svg>
