<?xml version="1.0" encoding="UTF-8"?>
<svg version="1.1" xmlns="http://www.w3.org/2000/svg" width="577" height="433">
<path d="M0 0 C3.07058971 1.19383719 6.19705605 2.04113882 9.37109375 2.921875 C13.93761586 4.19035336 18.4321927 5.58755278 22.92138672 7.10107422 C27.41145677 8.60552065 31.92301213 10.04284892 36.43359375 11.484375 C37.84608398 11.93973633 37.84608398 11.93973633 39.28710938 12.40429688 C43.29225475 13.68360218 47.27720044 14.93841216 51.3671875 15.91796875 C57.42787335 17.37244086 63.31582454 19.42703939 69.23828125 21.35546875 C73.42472855 22.70649676 77.58672001 24.01809369 81.86328125 25.0546875 C87.9438738 26.55790748 95.37212627 29.65083731 98.74609375 35.171875 C98.95234375 35.749375 99.15859375 36.326875 99.37109375 36.921875 C100.03109375 36.921875 100.69109375 36.921875 101.37109375 36.921875 C104.21902304 40.81983657 105.48901449 45.09184204 106.80859375 49.671875 C108.41445852 55.05970764 110.16201674 60.17317857 112.671875 65.22265625 C113.37109375 66.921875 113.37109375 66.921875 113.37109375 69.921875 C114.03109375 69.921875 114.69109375 69.921875 115.37109375 69.921875 C115.59796875 70.705625 115.82484375 71.489375 116.05859375 72.296875 C117.15234375 75.140625 117.15234375 75.140625 119.99609375 76.234375 C120.77984375 76.46125 121.56359375 76.688125 122.37109375 76.921875 C122.37109375 77.581875 122.37109375 78.241875 122.37109375 78.921875 C123.14453125 79.1075 123.14453125 79.1075 123.93359375 79.296875 C126.37109375 79.921875 126.37109375 79.921875 129.30859375 80.984375 C134.90058541 82.5552909 140.61961474 82.10850116 146.37109375 81.921875 C147.14855957 81.89722168 147.92602539 81.87256836 148.72705078 81.84716797 C158.17486663 81.52718195 167.54633793 80.99078055 176.93359375 79.859375 C195.31734605 77.70666412 210.20721104 80.00471997 225.12109375 91.734375 C233.13493327 98.93549023 238.76550073 109.77019336 239.56347656 120.51147461 C239.64121297 123.46364423 239.64795681 126.40629112 239.62109375 129.359375 C239.61432617 130.43960938 239.60755859 131.51984375 239.60058594 132.6328125 C239.50185739 140.57701677 239.16993774 148.49630646 238.62109375 156.421875 C238.55954102 157.44079834 238.49798828 158.45972168 238.43457031 159.50952148 C237.9126942 166.03676241 236.40438147 171.13246401 233.37109375 176.921875 C232.79359375 178.0975 232.21609375 179.273125 231.62109375 180.484375 C231.20859375 181.28875 230.79609375 182.093125 230.37109375 182.921875 C229.71109375 182.921875 229.05109375 182.921875 228.37109375 182.921875 C228.14421875 183.47875 227.91734375 184.035625 227.68359375 184.609375 C225.99559339 187.58347088 223.90432858 189.64196365 221.37109375 191.921875 C220.71109375 191.921875 220.05109375 191.921875 219.37109375 191.921875 C219.37109375 192.581875 219.37109375 193.241875 219.37109375 193.921875 C210.19471791 199.70698151 200.17925878 201.48900539 189.62109375 203.421875 C187.30970153 203.85573695 184.99850133 204.29062324 182.6875 204.7265625 C181.59195801 204.93249023 180.49641602 205.13841797 179.36767578 205.35058594 C171.53256853 206.84432481 163.75887516 208.59200915 155.99609375 210.421875 C148.49940588 212.17018682 140.94046328 213.53271021 133.37109375 214.921875 C131.49504739 215.27045652 129.61985485 215.62371121 127.74609375 215.984375 C126.67488281 216.18740234 126.67488281 216.18740234 125.58203125 216.39453125 C123.24074251 216.90691305 123.24074251 216.90691305 120.55859375 217.95703125 C113.58366608 220.0683145 104.50495321 220.43360283 97.80859375 217.234375 C96.63823188 216.50131897 95.48956729 215.7318966 94.37109375 214.921875 C93.33984375 214.24125 92.30859375 213.560625 91.24609375 212.859375 C85.06418849 207.38301327 82.12484421 198.61345816 79.2421875 191.08984375 C77.30148105 186.14490882 77.30148105 186.14490882 73.37109375 182.921875 C73.37109375 182.261875 73.37109375 181.601875 73.37109375 180.921875 C61.01276516 180.6066475 61.01276516 180.6066475 48.8359375 182.421875 C45.96036644 183.00519211 43.17572888 183.19056049 40.24609375 183.359375 C28.1033979 184.10253453 16.02854106 185.84987536 3.984375 187.52734375 C-3.05341632 188.5054276 -10.01789377 189.22883626 -17.1171875 189.578125 C-19.97700998 189.85806313 -22.56155899 190.31470193 -25.35546875 190.9296875 C-30.82483808 192.0659388 -36.11752617 192.28910653 -41.69140625 192.296875 C-42.62017578 192.32136719 -43.54894531 192.34585938 -44.50585938 192.37109375 C-54.05214438 192.41128863 -61.34348417 188.96722524 -68.62890625 182.921875 C-68.62890625 181.931875 -68.62890625 180.941875 -68.62890625 179.921875 C-69.61890625 179.591875 -70.60890625 179.261875 -71.62890625 178.921875 C-75.83911637 171.2811233 -76.19891264 160.74952585 -73.9375 152.35546875 C-72.99883172 150.34852528 -71.95749345 148.69193632 -70.62890625 146.921875 C-70.22800781 146.32246094 -69.82710937 145.72304687 -69.4140625 145.10546875 C-64.8328068 138.9572908 -58.18553138 134.90264592 -50.70703125 133.29296875 C-47.65305934 132.97383676 -44.69895111 132.88698813 -41.62890625 132.921875 C-40.58734375 132.92316406 -39.54578125 132.92445313 -38.47265625 132.92578125 C-29.85364157 133.2500403 -22.59219276 135.75983919 -14.62890625 138.921875 C-5.4334438 142.56452196 4.91822009 144.77304575 14.37109375 140.921875 C17.1379143 139.69127146 19.89079837 138.44224784 22.625 137.140625 C35.66332409 131.35405727 47.99717243 133.52414448 61.1171875 137.6328125 C64.68530539 138.74989528 68.25836338 139.60926532 71.91333008 140.39013672 C85.45806511 143.32054627 98.92064165 146.72278457 112.29150391 150.359375 C124.47121157 153.65381577 136.65814636 156.8796968 148.99951172 159.51464844 C153.28769371 160.43472559 157.51859152 161.47789713 161.75219727 162.62231445 C170.77654893 165.03402235 179.83117795 166.89158098 188.7109375 162.953125 C191.74851223 161.06625505 192.93155327 159.16084109 194.37109375 155.921875 C195.25209838 150.27129359 194.64179644 145.71890562 191.37109375 140.921875 C183.56613108 133.29842309 173.98685805 129.77378904 163.10424805 129.52709961 C162.41347168 129.50890671 161.72269531 129.49071381 161.01098633 129.4719696 C158.73921148 129.41420074 156.46737285 129.36922905 154.1953125 129.32421875 C152.58606437 129.28548021 150.97683685 129.24587693 149.36763 129.20545959 C145.12484062 129.10096293 140.88188473 129.00703823 136.63879395 128.91571045 C129.93736554 128.76939313 123.23631992 128.60580595 116.53521919 128.44529915 C114.06426962 128.38657514 111.59328735 128.32939815 109.12229919 128.27232361 C100.1329388 128.06129371 91.15177272 127.77769529 82.16796875 127.390625 C68.47545592 126.81256435 54.78098078 126.69332435 41.07870674 126.55716133 C14.60522523 126.29377016 -11.85596973 125.8718652 -38.31640625 124.984375 C-39.49451874 124.94676056 -40.67263123 124.90914612 -41.88644409 124.87039185 C-64.31922607 124.14227441 -86.47261881 122.56457149 -108.62890625 118.921875 C-112.9586708 118.22911267 -117.29087367 117.56091851 -121.62890625 116.921875 C-122.43102539 116.80312012 -123.23314453 116.68436523 -124.05957031 116.56201172 C-126.89355144 116.14874414 -129.72960483 115.75278788 -132.56640625 115.359375 C-133.42854736 115.23240234 -134.29068848 115.10542969 -135.17895508 114.97460938 C-151.98990858 112.69923907 -168.96419182 112.85602688 -185.890625 112.96484375 C-186.7526824 112.96988104 -187.6147398 112.97491833 -188.50292015 112.98010826 C-196.61138732 113.02763104 -204.71975625 113.07912748 -212.82788086 113.16870117 C-217.3077042 113.21747097 -221.78728906 113.24627239 -226.26734352 113.26244545 C-227.95250142 113.27224948 -229.63763534 113.28931393 -231.32263756 113.31422997 C-243.23823782 113.48695185 -254.18805244 113.04307399 -263.265625 104.35546875 C-267.97071956 99.40770456 -269.67820496 94.40207217 -269.94140625 87.546875 C-269.67154285 78.19690191 -265.71914206 70.94530982 -259.140625 64.453125 C-251.07150693 57.88570384 -239.61660132 56.54196737 -229.62939453 54.96044922 C-225.17476377 54.25029069 -220.96897311 53.18044445 -216.62890625 51.921875 C-214.48933536 51.51265365 -212.34329924 51.13537502 -210.19140625 50.796875 C-209.14082031 50.62929687 -208.09023437 50.46171875 -207.0078125 50.2890625 C-206.22277344 50.16789062 -205.43773437 50.04671875 -204.62890625 49.921875 C-204.62890625 49.261875 -204.62890625 48.601875 -204.62890625 47.921875 C-203.96890625 47.921875 -203.30890625 47.921875 -202.62890625 47.921875 C-202.55897461 47.24721191 -202.48904297 46.57254883 -202.41699219 45.87744141 C-202.0858292 42.76546766 -201.73250718 39.65637597 -201.37890625 36.546875 C-201.26933594 35.48597656 -201.15976563 34.42507812 -201.046875 33.33203125 C-200.25885452 26.57164506 -199.18953016 19.847344 -195.62890625 13.921875 C-194.63890625 13.591875 -193.64890625 13.261875 -192.62890625 12.921875 C-192.17451172 11.99761719 -192.17451172 11.99761719 -191.7109375 11.0546875 C-190.34694985 8.36610535 -188.83841468 7.4160468 -186.31640625 5.796875 C-185.55714844 5.29929687 -184.79789062 4.80171875 -184.015625 4.2890625 C-171.766232 -2.72777474 -157.84337483 1.42756058 -144.98828125 4.6328125 C-140.49900877 5.74694449 -136.00125942 6.6230182 -131.44628906 7.42138672 C-126.49189248 8.3015005 -121.56211218 9.30589829 -116.62890625 10.296875 C-115.53513672 10.51601562 -114.44136719 10.73515625 -113.31445312 10.9609375 C-106.91202942 12.2481577 -100.51703238 13.56563526 -94.12890625 14.921875 C-91.83124685 15.40651791 -89.53337831 15.89014879 -87.23535156 16.37304688 C-85.33327239 16.77355961 -83.43163982 17.17619507 -81.53027344 17.58007812 C-78.18999798 18.28650457 -74.84725362 18.98014796 -71.50390625 19.671875 C-70.46041016 19.89488281 -69.41691406 20.11789063 -68.34179688 20.34765625 C-58.17328813 22.73742055 -58.17328813 22.73742055 -48.28125 20.7421875 C-47.71535156 20.18273437 -47.14945313 19.62328125 -46.56640625 19.046875 C-45.91414062 18.41265625 -45.261875 17.7784375 -44.58984375 17.125 C-42.49182224 14.7678603 -40.59651641 12.31192161 -38.69140625 9.796875 C-34.95423735 4.94666369 -31.15369509 2.41426094 -25.62890625 -0.078125 C-25.02949219 -0.44292969 -24.43007813 -0.80773437 -23.8125 -1.18359375 C-16.88064842 -4.02329681 -6.80881975 -2.72867634 0 0 Z M-22.62890625 17.921875 C-22.62890625 18.581875 -22.62890625 19.241875 -22.62890625 19.921875 C-23.28890625 19.921875 -23.94890625 19.921875 -24.62890625 19.921875 C-27.65408534 22.97745923 -27.65408534 22.97745923 -28.62890625 26.921875 C-29.61890625 27.251875 -30.60890625 27.581875 -31.62890625 27.921875 C-33.18041251 29.52335669 -33.18041251 29.52335669 -34.62890625 31.421875 C-36.71025757 34.06692564 -37.32811734 34.82161203 -40.62890625 35.921875 C-40.62890625 36.581875 -40.62890625 37.241875 -40.62890625 37.921875 C-41.55703125 38.06625 -42.48515625 38.210625 -43.44140625 38.359375 C-46.63615736 38.84287611 -46.63615736 38.84287611 -49.62890625 39.921875 C-51.39681877 40.04121603 -53.16951269 40.09712124 -54.94140625 40.109375 C-56.32779297 40.13064453 -56.32779297 40.13064453 -57.7421875 40.15234375 C-60.9828779 39.89361475 -63.56100097 38.98428636 -66.62890625 37.921875 C-69.12126677 37.40443928 -71.62236125 36.92803347 -74.12890625 36.484375 C-80.4688139 35.34080031 -86.7647163 34.06486323 -93.0546875 32.66796875 C-95.97641669 32.05807774 -98.89456878 31.50594088 -101.83203125 30.98046875 C-107.60075315 29.9434227 -113.33243247 28.75966688 -119.06640625 27.546875 C-127.60863515 25.75235607 -136.15739602 23.99988751 -144.72094727 22.31005859 C-150.73267454 21.11863351 -156.71179929 19.81673508 -162.68359375 18.4375 C-168.5863978 17.40411786 -172.51605946 17.65835577 -177.62890625 20.921875 C-183.19774706 26.11044595 -183.67837961 31.03365408 -184.37890625 38.421875 C-184.60232461 40.45318446 -184.82626755 42.48443631 -185.05078125 44.515625 C-185.19676758 45.92714844 -185.19676758 45.92714844 -185.34570312 47.3671875 C-185.66423272 50.2405441 -186.10321348 53.07924001 -186.62890625 55.921875 C-187.28890625 55.921875 -187.94890625 55.921875 -188.62890625 55.921875 C-188.62890625 56.911875 -188.62890625 57.901875 -188.62890625 58.921875 C-189.28890625 58.921875 -189.94890625 58.921875 -190.62890625 58.921875 C-191.39203125 59.685 -192.15515625 60.448125 -192.94140625 61.234375 C-197.93471104 66.22767979 -202.3910716 67.5222442 -209.1484375 68.60546875 C-210.82748561 68.89641715 -212.50652169 69.18743496 -214.18554688 69.47851562 C-216.81133141 69.92076076 -219.43777208 70.35877263 -222.06469727 70.79418945 C-224.61537369 71.22070072 -227.16306816 71.66254261 -229.7109375 72.10546875 C-230.48516556 72.2285289 -231.25939362 72.35158905 -232.05708313 72.4783783 C-239.58334542 73.79498904 -247.00056792 76.55790979 -251.62890625 82.921875 C-252.37703018 85.99408883 -252.14674706 87.65947792 -251.62890625 90.921875 C-248.50082635 94.73422237 -245.60801183 95.22832846 -240.84236526 95.74850655 C-237.19148759 96.03446035 -233.55999572 96.0357335 -229.89990234 96.00366211 C-229.06600479 96.00059555 -228.23210724 95.99752899 -227.37294006 95.99436951 C-225.57297156 95.98725382 -223.77301082 95.97788487 -221.97306442 95.96647453 C-219.10155468 95.94890805 -216.23010205 95.93872659 -213.35855103 95.93055725 C-205.19698684 95.9062815 -197.03549853 95.87107639 -188.87402344 95.82592773 C-183.86565283 95.79874086 -178.85732722 95.78196099 -173.84889603 95.77105904 C-171.96354142 95.76495313 -170.07819426 95.75508523 -168.19288254 95.74098015 C-158.03295477 95.66574078 -147.98310226 95.91185116 -137.85791016 96.80688477 C-136.96636923 96.88472922 -136.0748283 96.96257368 -135.15627098 97.04277706 C-130.16715491 97.52878383 -125.36174945 98.31584355 -120.48544979 99.48070621 C-118.35548344 99.98684822 -116.23197778 100.34257613 -114.0625 100.6328125 C-113.26585937 100.74125488 -112.46921875 100.84969727 -111.6484375 100.96142578 C-107.75138339 101.46771855 -103.85415295 101.97261291 -99.95654297 102.47460938 C-96.52969615 102.93520977 -93.11363739 103.44888862 -89.6953125 103.96875 C-68.98542697 106.98951039 -48.46164341 107.55149256 -27.55383682 107.77433014 C-20.56393401 107.86230697 -13.58861314 108.10201557 -6.60449219 108.39013672 C8.51533786 108.97862324 23.63610539 109.26106928 38.76428032 109.5220623 C43.68253 109.60709299 48.60067523 109.69739998 53.51881409 109.78858948 C67.48044814 110.04687734 81.44213663 110.30158033 95.40405273 110.54418945 C103.16762432 110.67913653 110.93106565 110.82001064 118.69441372 110.96726948 C122.77353852 111.04439109 126.85266584 111.11863054 130.93197441 111.18539238 C160.00291941 111.66400781 160.00291941 111.66400781 172.32446289 112.84790039 C173.1224829 112.92327498 173.92050291 112.99864958 174.74270535 113.07630825 C178.32892273 113.47633153 180.31357482 113.88352905 183.37109375 115.921875 C184.21671875 116.169375 185.06234375 116.416875 185.93359375 116.671875 C193.86456647 119.55586508 201.09819517 124.26222021 206.37109375 130.921875 C206.70109375 131.911875 207.03109375 132.901875 207.37109375 133.921875 C208.03109375 133.921875 208.69109375 133.921875 209.37109375 133.921875 C212.70854251 146.77502586 213.5517422 155.48831871 208.37109375 167.921875 C208.04109375 168.911875 207.71109375 169.901875 207.37109375 170.921875 C206.71109375 170.921875 206.05109375 170.921875 205.37109375 170.921875 C204.77296875 171.685 204.17484375 172.448125 203.55859375 173.234375 C199.24070628 178.53920817 192.60958444 181.37457233 185.87158203 182.24462891 C183.09323839 182.39798404 180.34113178 182.43969525 177.55859375 182.421875 C176.55030518 182.41833008 175.5420166 182.41478516 174.50317383 182.41113281 C165.39474911 182.21320153 157.34988054 180.25734256 148.69580078 177.59326172 C143.94225451 176.22041439 139.08491477 175.27183096 134.24291992 174.26660156 C131.41045562 173.66340672 128.70379146 173.05838054 126.01953125 171.95703125 C121.77161887 170.29671152 117.3217711 169.50594352 112.87109375 168.546875 C106.79530115 167.20633672 100.79047861 165.85826952 94.87109375 163.921875 C88.12533385 161.72371841 81.24592693 160.24711185 74.32666016 158.71142578 C67.95002416 157.29354001 61.65639378 155.70187197 55.37109375 153.921875 C40.52422999 149.77545359 33.75070574 151.08998666 19.74609375 157.609375 C4.33868572 163.60114479 -11.79132487 159.33531293 -26.57421875 153.1015625 C-33.38544064 150.2612554 -40.20931572 149.31517345 -47.50390625 150.609375 C-52.14026497 152.55664566 -54.75355631 154.62296864 -57.56640625 158.796875 C-58.91043029 162.74988687 -58.44575247 164.20918924 -56.62890625 167.921875 C-53.82124165 172.33391937 -51.64595459 173.64105207 -46.62890625 174.921875 C-43.08988544 175.05903901 -43.08988544 175.05903901 -39.25390625 174.734375 C-38.53420654 174.68539062 -37.81450684 174.63640625 -37.07299805 174.5859375 C-29.45592544 174.0114856 -21.88786657 173.00616768 -14.31640625 172.01123047 C-7.70828684 171.14925587 -1.16396819 170.56069191 5.48828125 170.16796875 C8.19467828 169.93693486 10.72132304 169.50550617 13.37109375 168.921875 C18.26843249 167.84320071 23.08304605 167.56749545 28.08203125 167.2734375 C32.41697438 166.96514691 36.70245763 166.36863753 41.00708008 165.78125 C73.90300488 161.32463236 73.90300488 161.32463236 85.31640625 169.27734375 C92.56217585 174.9314694 95.08038448 182.4308022 98.125 190.8359375 C99.31079513 193.77254613 100.55394549 196.32870321 102.37109375 198.921875 C103.03109375 198.921875 103.69109375 198.921875 104.37109375 198.921875 C104.37109375 199.581875 104.37109375 200.241875 104.37109375 200.921875 C109.88535459 202.31597959 114.15984434 201.38246139 119.55859375 200.109375 C121.15586849 199.7470121 122.75353002 199.38635023 124.3515625 199.02734375 C125.16713623 198.84308838 125.98270996 198.65883301 126.82299805 198.46899414 C130.38880376 197.70335549 133.9749176 197.07254873 137.56518555 196.43334961 C142.28792949 195.57246485 146.9849655 194.59225332 151.68359375 193.609375 C153.2313147 193.28670654 153.2313147 193.28670654 154.81030273 192.95751953 C162.78861327 191.28191004 170.74018833 189.50213266 178.68139648 187.65917969 C183.38197945 186.57439671 188.07958207 185.57644123 192.82568359 184.71289062 C204.04916112 182.64683476 210.61723659 179.39906167 217.37109375 169.921875 C222.04373579 160.75382906 221.68823321 151.14952421 221.77612305 141.13452148 C221.79762579 139.29676432 221.83163636 137.45910741 221.87866211 135.62182617 C222.1821408 123.63495798 221.9980447 114.4637516 213.69116211 105.01000977 C208.51312562 99.7699207 201.32030614 97.15075147 194.06420898 96.73022461 C184.82576896 96.81167897 175.65204818 97.22315274 166.43359375 97.859375 C165.07619727 97.94765698 163.71877534 98.03554848 162.36132812 98.12304688 C155.99690604 98.54734168 149.69039386 99.05744244 143.37109375 99.921875 C132.46718678 101.09083515 119.5114201 97.58328128 110.80859375 90.9765625 C100.72742051 81.96166719 96.45068474 73.22203622 92.08203125 60.640625 C90.4346341 55.94720815 88.45878502 51.43419931 86.37109375 46.921875 C85.71109375 46.921875 85.05109375 46.921875 84.37109375 46.921875 C84.37109375 46.261875 84.37109375 45.601875 84.37109375 44.921875 C77.89340325 42.11587082 71.37599873 39.9948091 64.578125 38.109375 C59.48543012 36.68804225 54.42889809 35.14953188 49.37109375 33.609375 C47.89564087 33.16029785 47.89564087 33.16029785 46.39038086 32.70214844 C39.65737379 30.64321835 32.94857982 28.51526448 26.24609375 26.359375 C16.32391324 23.16911026 6.3302827 20.27025497 -3.7097168 17.47509766 C-5.36196721 16.99882245 -6.9976207 16.46563685 -8.62890625 15.921875 C-10.45947018 15.80332944 -12.29454931 15.74670267 -14.12890625 15.734375 C-15.08796875 15.72019531 -16.04703125 15.70601562 -17.03515625 15.69140625 C-19.86636764 15.73432389 -19.86636764 15.73432389 -22.62890625 17.921875 Z " fill="#0C0C0C" transform="translate(303.62890625,108.078125)"/>
</svg>
