<?xml version="1.0" encoding="UTF-8"?>
<svg version="1.1" xmlns="http://www.w3.org/2000/svg" width="577" height="433">
<path d="M0 0 C0 0.66 0 1.32 0 2 C0.556875 2.268125 1.11375 2.53625 1.6875 2.8125 C4.21225334 4.10899496 6.63714484 5.42476323 9 7 C9 7.66 9 8.32 9 9 C9.7425 9.2475 10.485 9.495 11.25 9.75 C14.23023087 11.10465039 15.89919252 12.5101541 18 15 C18 15.66 18 16.32 18 17 C18.99 17.33 19.98 17.66 21 18 C21 18.66 21 19.32 21 20 C21.804375 20.3403125 21.804375 20.3403125 22.625 20.6875 C25.82460161 22.45570089 28.29037223 24.53670203 31 27 C31 27.66 31 28.32 31 29 C31.639375 29.268125 32.27875 29.53625 32.9375 29.8125 C35 31 35 31 36 34 C36.99 34 37.98 34 39 34 C39 34.66 39 35.32 39 36 C39.66 36 40.32 36 41 36 C41 36.66 41 37.32 41 38 C41.556875 38.2578125 42.11375 38.515625 42.6875 38.78125 C46.21146863 40.63847671 49.33387054 43.02071173 52.5625 45.34375 C63.31234565 52.6481323 76.67647149 51.11469102 89 50 C91.24995917 49.85353801 93.49995672 49.70766408 95.75 49.5625 C99.75340864 49.29970642 103.60603421 48.71387347 107.546875 47.9921875 C137.98037832 42.83297065 165.66526958 51.44564509 193.03833008 64.18334961 C195.00686629 65.00285846 196.92124016 65.53789201 199 66 C199 66.66 199 67.32 199 68 C200.98 68.66 202.96 69.32 205 70 C205 70.66 205 71.32 205 72 C205.99 72.33 206.98 72.66 208 73 C208 73.66 208 74.32 208 75 C208.99 75.33 209.98 75.66 211 76 C217.43968652 84.66459038 218.34207379 93.65943145 217 104 C215.9747031 107.13723326 214.84385635 109.23421547 213 112 C212.34 112 211.68 112 211 112 C210.67 112.99 210.34 113.98 210 115 C209.34 115 208.68 115 208 115 C207.67 115.99 207.34 116.98 207 118 C204.9375 118.6875 204.9375 118.6875 203 119 C203 119.66 203 120.32 203 121 C198.05748173 123.3879627 194.48532392 124.36772112 188.90625 124.37109375 C187.54296313 124.38537863 186.17968192 124.40021132 184.81640625 124.41552734 C184.1114502 124.41848816 183.40649414 124.42144897 182.68017578 124.42449951 C171.66247016 124.4901986 160.86779636 124.90525753 150 126.875 C149.10732422 127.03669678 148.21464844 127.19839355 147.29492188 127.36499023 C141.69827496 128.46939379 136.36546753 130.0705701 131 132 C135.88094141 133.51781533 140.45559915 134.40500289 145.5625 134.9375 C147.06921269 135.10232808 148.5757144 135.26909289 150.08203125 135.4375 C150.87818848 135.52644531 151.6743457 135.61539063 152.49462891 135.70703125 C159.73107914 136.55323475 166.94420587 137.59745107 174.15966797 138.60449219 C177.02387895 139.00332507 179.88886138 139.39627016 182.75390625 139.7890625 C184.60682042 140.04651836 186.45968681 140.3043184 188.3125 140.5625 C189.15329102 140.677146 189.99408203 140.79179199 190.86035156 140.90991211 C200.8145922 142.31302586 209.10226003 144.64103801 218.15527344 149.09960938 C220.10665988 150.05205951 222.071589 150.97190937 224.0390625 151.890625 C232.18511432 155.75256358 239.28697274 159.87187017 246 166 C246.9075 166.825 247.815 167.65 248.75 168.5 C253.7192719 174.02141323 257.81114503 180.11073859 261.875 186.3125 C262.28073242 186.92343506 262.68646484 187.53437012 263.10449219 188.16381836 C266 192.64812735 266 192.64812735 266 196 C266.66 196 267.32 196 268 196 C269.49139328 198.22342134 270.85375786 200.43389741 272.1875 202.75 C272.58316162 203.42579102 272.97882324 204.10158203 273.38647461 204.79785156 C274.19957644 206.18781949 275.00986153 207.57943882 275.81738281 208.97265625 C276.91067938 210.84687894 278.0239217 212.70689114 279.1484375 214.5625 C280.09589844 216.1403125 280.09589844 216.1403125 281.0625 217.75 C281.63097656 218.69359375 282.19945312 219.6371875 282.78515625 220.609375 C284 223 284 223 284 226 C284.66 226 285.32 226 286 226 C286.3623877 226.64437012 286.72477539 227.28874023 287.09814453 227.95263672 C288.77231363 230.92757609 290.44864494 233.90129189 292.125 236.875 C292.69476563 237.88820313 293.26453125 238.90140625 293.8515625 239.9453125 C296.56284583 244.7516784 299.30172242 249.53024758 302.16796875 254.24609375 C304.71862658 258.467348 307.0160974 262.76100992 309.1875 267.1875 C309.51685547 267.84685547 309.84621094 268.50621094 310.18554688 269.18554688 C310.83371056 270.4934716 311.47230099 271.80619011 312.10058594 273.1237793 C312.94179209 274.87857552 313.82680796 276.61218135 314.71484375 278.34375 C316.38946776 283.10802985 316.43973591 287.30265947 316.375 292.3125 C316.38660156 293.19873047 316.39820313 294.08496094 316.41015625 294.99804688 C316.35073486 308.57583497 311.25731234 318.89581224 302.31640625 328.80078125 C296.8401421 334 296.8401421 334 293 334 C293 334.66 293 335.32 293 336 C281.6290605 339.76046818 270.25549255 340.81458122 259 336 C251.84073626 331.78581904 246.00825677 326.60236356 241 320 C240.18208984 318.95199219 240.18208984 318.95199219 239.34765625 317.8828125 C232.60582129 308.61897082 231.52498714 297.79031947 230.0625 286.6875 C228.30714691 274.17722055 225.88432379 262.69312976 220.734375 251.0859375 C220 249 220 249 220 245 C219.34 245 218.68 245 218 245 C216.52734375 242.91796875 216.52734375 242.91796875 214.9375 240.1875 C214.41027344 239.29417969 213.88304687 238.40085937 213.33984375 237.48046875 C212 235 212 235 211 232 C209.67661368 231.31379969 208.34050052 230.65213539 207 230 C206.0925 229.21625 205.185 228.4325 204.25 227.625 C200.83349562 224.6928608 197.10130627 222.80963225 193 221 C192.26249732 220.67424453 191.52499464 220.34848906 190.76514339 220.01286221 C180.27196762 216.16924918 168.36359579 216.67772027 157.31420898 216.60522461 C155.68699273 216.58764587 154.05978519 216.56924426 152.43258667 216.5500946 C148.03901729 216.50064298 143.64541512 216.46247049 139.25171924 216.42628551 C134.57570417 216.38565879 129.89980984 216.33402845 125.22389221 216.28358459 C116.31560114 216.18904948 107.40724844 216.10359714 98.49883276 216.02173859 C87.6274091 215.9215542 76.75608548 215.81198204 65.88476562 215.70117188 C64.92276021 215.69137259 63.96075479 215.68157331 62.9695977 215.67147708 C59.10433544 215.63207907 55.23907364 215.59263867 51.37381357 215.55302656 C46.58036579 215.50390428 41.7869151 215.45511823 36.99345589 215.40712357 C4.99496276 215.0864553 -26.99896569 214.64878767 -58.99365616 214.05498123 C-61.86312202 214.00250328 -64.73261568 213.95231987 -67.60214233 213.90328979 C-75.99249659 213.7597983 -84.38206797 213.60482296 -92.77105236 213.39475155 C-96.21094777 213.30890787 -99.65055041 213.2332411 -103.09106445 213.17675781 C-133.05082314 212.67349439 -133.05082314 212.67349439 -146 207 C-146.84796143 206.6498584 -147.69592285 206.2997168 -148.56958008 205.93896484 C-150.59725314 205.05304698 -152.54567353 204.09855389 -154.5 203.0625 C-155.16523682 202.71606445 -155.83047363 202.36962891 -156.51586914 202.01269531 C-166.37993245 196.77479653 -173.0439867 190.55443801 -179 181 C-179 180.01 -179 179.02 -179 178 C-179.66 178 -180.32 178 -181 178 C-181.79675015 176.14801206 -182.58714361 174.2932889 -183.375 172.4375 C-184.03628906 170.88869141 -184.03628906 170.88869141 -184.7109375 169.30859375 C-188.02459711 160.8035341 -188.39897478 153.1507053 -188.375 144.125 C-188.37512085 143.43224976 -188.3752417 142.73949951 -188.37536621 142.02575684 C-188.34847109 131.22079849 -187.47145711 121.28404359 -184 111 C-183.47986328 109.44539063 -183.47986328 109.44539063 -182.94921875 107.859375 C-182.30225079 106.03087869 -181.63123697 104.2106011 -180.9296875 102.40234375 C-180.05462228 100.14114581 -179.29557941 97.87293566 -178.5625 95.5625 C-175.00948847 84.86526098 -170.24214205 75.36321308 -164 66 C-163.34 66 -162.68 66 -162 66 C-161.64035156 65.10667969 -161.64035156 65.10667969 -161.2734375 64.1953125 C-159.7375442 61.54754552 -158.19767363 60.5074939 -155.625 58.875 C-154.85414063 58.37742187 -154.08328125 57.87984375 -153.2890625 57.3671875 C-143.37757519 51.4473572 -132.27112332 51.47877838 -121.12109375 53.19921875 C-117.77935199 54.05661182 -115.02116306 55.35085385 -112 57 C-112 57.66 -112 58.32 -112 59 C-111.319375 59.165 -110.63875 59.33 -109.9375 59.5 C-104.91165812 62.06638734 -100.79026009 66.62921972 -99 72 C-98.34 72 -97.68 72 -97 72 C-97 72.99 -97 73.98 -97 75 C-96.01 75 -95.02 75 -94 75 C-93.67 75.66 -93.34 76.32 -93 77 C-92.96036133 76.20529297 -92.92072266 75.41058594 -92.87988281 74.59179688 C-91.33674918 45.14437379 -91.33674918 45.14437379 -87 32 C-86.69956787 31.06365723 -86.69956787 31.06365723 -86.39306641 30.10839844 C-84.20636256 23.34451419 -81.85137574 16.99102893 -78 11 C-77.34 11 -76.68 11 -76 11 C-75.62875 10.1646875 -75.62875 10.1646875 -75.25 9.3125 C-71.91063831 3.13468087 -67.1340301 -0.7127021 -61 -4 C-60.01 -4 -59.02 -4 -58 -4 C-58 -4.66 -58 -5.32 -58 -6 C-37.79936843 -13.99459624 -18.58294807 -10.16907953 0 0 Z M-61.40625 20.3984375 C-68.04241266 31.23099714 -71.96736767 42.9677072 -72.74609375 55.62890625 C-72.86235113 57.25718141 -72.97889623 58.88543604 -73.09570312 60.51367188 C-73.2689297 63.04327125 -73.43818111 65.57303242 -73.60180664 68.10327148 C-73.76415579 70.57102631 -73.94179184 73.03733334 -74.12109375 75.50390625 C-74.18688881 76.62606285 -74.18688881 76.62606285 -74.25401306 77.77088928 C-74.71261515 83.90861264 -75.88660272 89.04124154 -80.5625 93.375 C-86.05742966 97.03828644 -91.54302539 96.97247901 -98 96 C-105.07640583 92.60187919 -109.70333471 87.38792067 -114.2890625 81.1875 C-118.33055543 76.02029442 -121.99607844 72.50119251 -128.62890625 71.39453125 C-135.02403597 71.15955628 -141.06649095 71.17019086 -146.296875 75.1953125 C-152.46270004 81.72882436 -155.96843677 89.66979149 -159 98 C-159.68302587 99.68931589 -160.37054032 101.37682379 -161.0625 103.0625 C-163.759554 109.83157671 -166.06357798 116.56041016 -167.52734375 123.70703125 C-167.84173129 125.23220058 -168.18810743 126.75113243 -168.56640625 128.26171875 C-172.65766322 145.57088286 -169.35415819 159.58263866 -160.5078125 174.51953125 C-155.867328 181.29556211 -149.45096304 184.86858175 -142 188 C-141.01 188 -140.02 188 -139 188 C-139 188.66 -139 189.32 -139 190 C-137.29649956 190.4960743 -135.58669162 190.97047187 -133.875 191.4375 C-132.92367187 191.70433594 -131.97234375 191.97117188 -130.9921875 192.24609375 C-120.37703016 194.59658053 -108.97508267 194.16660339 -98.16015625 194.28125 C-96.781198 194.29937792 -95.40224597 194.31798421 -94.02330017 194.33703613 C-89.70308486 194.39584189 -85.38280672 194.448411 -81.0625 194.5 C-76.04749527 194.55993806 -71.03255362 194.62265483 -66.01766777 194.69187927 C-64.04453855 194.71780549 -62.07134812 194.73893725 -60.09815979 194.7598877 C-54.03871941 194.84191058 -48.02832941 195.04152859 -41.98535156 195.50219727 C-32.81807832 196.15676155 -23.65813825 196.18460392 -14.47056389 196.23007011 C-11.15494202 196.24662695 -7.83939777 196.26888652 -4.52381897 196.29249573 C0.26385529 196.32625805 5.05153616 196.35810034 9.8392334 196.38842773 C50.25250116 196.64882826 90.65835369 197.09828844 131.06399155 197.93437576 C134.23661846 197.99972437 137.40927409 198.0634832 140.5819397 198.12692261 C145.55622136 198.22695526 150.53038624 198.33153212 155.50448799 198.44013786 C157.30833296 198.47924567 159.11220001 198.51735117 160.91609001 198.5543232 C197.30702689 199.3089903 197.30702689 199.3089903 213 210 C213.70511719 210.47050781 214.41023438 210.94101562 215.13671875 211.42578125 C219.82467156 214.64934312 219.82467156 214.64934312 221 217 C221.66 217 222.32 217 223 217 C223 217.66 223 218.32 223 219 C223.70125 219.680625 224.4025 220.36125 225.125 221.0625 C241.69900082 237.26405137 246.6498607 264.96091589 249 287 C249.92830001 294.39136991 251.049604 300.61859108 255 307 C255.34804688 307.61617188 255.69609375 308.23234375 256.0546875 308.8671875 C259.29505157 314.07411736 263.54869216 316.40821906 269 319 C269.66 319.33 270.32 319.66 271 320 C277.23554639 320.81131644 282.0294396 320.3227072 287.18359375 316.60546875 C293.35771993 311.14833786 296.41862952 305.03336206 298 297 C298.15082031 296.31550781 298.30164063 295.63101562 298.45703125 294.92578125 C299.63393835 284.45330281 290.57584536 272.52570095 285.2265625 264.11328125 C283.89204487 261.81400088 282.93190653 259.48653564 282 257 C281.34 257 280.68 257 280 257 C279.87399414 256.41299316 279.74798828 255.82598633 279.61816406 255.22119141 C279.01120951 253.0402781 278.24164473 251.41155384 277.109375 249.4609375 C276.54295288 248.47299194 276.54295288 248.47299194 275.96508789 247.46508789 C275.56410889 246.77535889 275.16312988 246.08562988 274.75 245.375 C271.61284201 239.91153591 268.63476968 234.43808973 265.97265625 228.72265625 C265.11167165 226.82293072 265.11167165 226.82293072 263 226 C262.06606559 224.344389 261.19897217 222.65049478 260.375 220.9375 C259.92898438 220.01839844 259.48296875 219.09929687 259.0234375 218.15234375 C258.68570312 217.44207031 258.34796875 216.73179687 258 216 C257.34 216 256.68 216 256 216 C255.8865625 215.43023437 255.773125 214.86046875 255.65625 214.2734375 C254.35591754 209.76871435 251.47042331 205.94646239 249 202 C248.31292969 200.87335938 247.62585938 199.74671875 246.91796875 198.5859375 C239.71286601 186.90765346 232.21670951 177.72712316 220 171 C218.90429688 170.3915625 217.80859375 169.783125 216.6796875 169.15625 C206.66985361 163.871416 196.72086152 160.49555813 185.4765625 159.08203125 C183.51360229 158.83030151 183.51360229 158.83030151 181.51098633 158.57348633 C180.43380844 158.43712265 180.43380844 158.43712265 179.33486938 158.29800415 C174.92561454 157.73524194 170.51972681 157.14678098 166.11328125 156.5625 C164.16601823 156.30466785 162.21875257 156.0468556 160.27148438 155.7890625 C159.29139404 155.65918945 158.31130371 155.52931641 157.30151367 155.39550781 C155.3035591 155.13113744 153.30551149 154.86746922 151.30737305 154.60449219 C145.66108355 153.86106176 140.01651204 153.10700287 134.37506104 152.32763672 C132.27589578 152.03805948 130.175851 151.75487359 128.07568359 151.47265625 C126.48167725 151.23869141 126.48167725 151.23869141 124.85546875 151 C123.98946045 150.87625 123.12345215 150.7525 122.23120117 150.625 C119.6376274 149.89849285 118.09706587 148.65494221 116 147 C115.34 147 114.68 147 114 147 C109.7749383 139.08469453 109.40826488 131.83636211 111.75 123.25 C115.77982807 115.99630947 125.30515001 113.52210554 132.7109375 111.12109375 C148.89674231 106.69202682 165.51506308 105.56671206 182.22631836 105.64208984 C189.47110667 105.73736525 189.47110667 105.73736525 195.80859375 102.70703125 C198.22073689 99.72732501 198.77467988 97.82872253 198.44921875 93.98828125 C197.38753675 89.2891844 195.07591306 86.6907275 191.09765625 84.13671875 C185.94498186 81.29889756 180.46460718 79.21476492 175 77.0625 C173.32442017 76.40217773 173.32442017 76.40217773 171.61499023 75.72851562 C168.41373538 74.4757599 165.20782871 73.23580718 162 72 C161.22930176 71.69819824 160.45860352 71.39639648 159.66455078 71.08544922 C140.05140707 63.48386295 119.14486172 63.84511582 98.70703125 68.0546875 C92.3675896 69.26014237 86.08030416 69.37217101 79.63964844 69.37060547 C77.63390153 69.37498058 75.6303608 69.41144654 73.625 69.44921875 C63.54406217 69.47904401 54.80447639 67.92626696 45.75634766 63.36474609 C43.2138959 61.85209413 43.2138959 61.85209413 41 62 C41 61.34 41 60.68 41 60 C39.05405478 58.45797883 39.05405478 58.45797883 36.5625 56.875 C30.69306911 52.88978982 25.23605732 48.44558622 20.37109375 43.265625 C19.0660543 41.77390663 19.0660543 41.77390663 17 42 C17 41.34 17 40.68 17 40 C15.35412025 38.25724224 15.35412025 38.25724224 13.25 36.5 C12.55390625 35.8915625 11.8578125 35.283125 11.140625 34.65625 C9.15539208 33.12023037 7.28127955 32.0276034 5 31 C5 30.34 5 29.68 5 29 C4.34 29 3.68 29 3 29 C3 28.34 3 27.68 3 27 C1.00715862 25.6559907 -0.99419671 24.32458708 -3 23 C-3.7425 22.21625 -4.485 21.4325 -5.25 20.625 C-14.32371512 11.96372648 -24.84849376 8.38862881 -37.12426758 8.44921875 C-46.86511558 8.76901678 -55.3022756 12.64878373 -61.40625 20.3984375 Z " fill="#0F0F0F" transform="translate(218,52)"/>
<path d="M0 0 C-1.39253532 3.48133831 -2.63176216 4.47886033 -6 6 C-6.33 6.66 -6.66 7.32 -7 8 C-6.44414399 4.1090079 -4.34122117 0 0 0 Z " fill="#7F7F7F" transform="translate(336,169)"/>
</svg>
